<mxfile host="app.diagrams.net" agent="Mozilla/5.0 (Windows NT 10.0; Win64; x64) AppleWebKit/537.36 (KHTML, like Gecko) Chrome/134.0.0.0 Safari/537.36" version="26.1.3">
  <diagram name="Page-1" id="p3uOxUkGzofVQlBsmHYB">
    <mxGraphModel dx="3827" dy="1491" grid="1" gridSize="10" guides="1" tooltips="1" connect="1" arrows="1" fold="1" page="1" pageScale="1" pageWidth="827" pageHeight="1169" math="0" shadow="0">
      <root>
        <mxCell id="0" />
        <mxCell id="1" parent="0" />
        <mxCell id="Ds1F4lpZc3j_FqvIpXGs-13" style="rounded=0;orthogonalLoop=1;jettySize=auto;html=1;exitX=1;exitY=0.3333333333333333;exitDx=0;exitDy=0;exitPerimeter=0;entryX=0;entryY=0.5;entryDx=0;entryDy=0;" parent="1" source="Ds1F4lpZc3j_FqvIpXGs-1" target="Ds1F4lpZc3j_FqvIpXGs-6" edge="1">
          <mxGeometry relative="1" as="geometry" />
        </mxCell>
        <mxCell id="Ds1F4lpZc3j_FqvIpXGs-14" style="rounded=0;orthogonalLoop=1;jettySize=auto;html=1;exitX=1;exitY=0.3333333333333333;exitDx=0;exitDy=0;exitPerimeter=0;entryX=0;entryY=0.5;entryDx=0;entryDy=0;" parent="1" source="Ds1F4lpZc3j_FqvIpXGs-1" target="Ds1F4lpZc3j_FqvIpXGs-7" edge="1">
          <mxGeometry relative="1" as="geometry" />
        </mxCell>
        <mxCell id="Ds1F4lpZc3j_FqvIpXGs-15" style="rounded=0;orthogonalLoop=1;jettySize=auto;html=1;exitX=1;exitY=0.3333333333333333;exitDx=0;exitDy=0;exitPerimeter=0;entryX=0;entryY=0.5;entryDx=0;entryDy=0;" parent="1" source="Ds1F4lpZc3j_FqvIpXGs-1" target="Ds1F4lpZc3j_FqvIpXGs-8" edge="1">
          <mxGeometry relative="1" as="geometry" />
        </mxCell>
        <mxCell id="Ds1F4lpZc3j_FqvIpXGs-16" style="rounded=0;orthogonalLoop=1;jettySize=auto;html=1;exitX=1;exitY=0.3333333333333333;exitDx=0;exitDy=0;exitPerimeter=0;entryX=0;entryY=0.5;entryDx=0;entryDy=0;" parent="1" source="Ds1F4lpZc3j_FqvIpXGs-1" target="Ds1F4lpZc3j_FqvIpXGs-9" edge="1">
          <mxGeometry relative="1" as="geometry" />
        </mxCell>
        <mxCell id="Ds1F4lpZc3j_FqvIpXGs-17" style="rounded=0;orthogonalLoop=1;jettySize=auto;html=1;exitX=1;exitY=0.3333333333333333;exitDx=0;exitDy=0;exitPerimeter=0;entryX=0;entryY=0.5;entryDx=0;entryDy=0;" parent="1" source="Ds1F4lpZc3j_FqvIpXGs-1" target="Ds1F4lpZc3j_FqvIpXGs-10" edge="1">
          <mxGeometry relative="1" as="geometry" />
        </mxCell>
        <mxCell id="Ds1F4lpZc3j_FqvIpXGs-18" style="rounded=0;orthogonalLoop=1;jettySize=auto;html=1;exitX=1;exitY=0.3333333333333333;exitDx=0;exitDy=0;exitPerimeter=0;entryX=0;entryY=0.5;entryDx=0;entryDy=0;" parent="1" source="Ds1F4lpZc3j_FqvIpXGs-1" target="Ds1F4lpZc3j_FqvIpXGs-11" edge="1">
          <mxGeometry relative="1" as="geometry" />
        </mxCell>
        <mxCell id="Ds1F4lpZc3j_FqvIpXGs-40" style="rounded=0;orthogonalLoop=1;jettySize=auto;html=1;exitX=1;exitY=0.3333333333333333;exitDx=0;exitDy=0;exitPerimeter=0;entryX=0;entryY=0.5;entryDx=0;entryDy=0;" parent="1" source="Ds1F4lpZc3j_FqvIpXGs-1" target="Ds1F4lpZc3j_FqvIpXGs-41" edge="1">
          <mxGeometry relative="1" as="geometry">
            <mxPoint x="260" y="779.9999999999998" as="targetPoint" />
          </mxGeometry>
        </mxCell>
        <mxCell id="Ds1F4lpZc3j_FqvIpXGs-1" value="Người thuê" style="shape=umlActor;verticalLabelPosition=bottom;verticalAlign=top;html=1;outlineConnect=0;" parent="1" vertex="1">
          <mxGeometry x="70" y="260" width="30" height="60" as="geometry" />
        </mxCell>
        <mxCell id="Ds1F4lpZc3j_FqvIpXGs-6" value="Đăng nhập" style="ellipse;whiteSpace=wrap;html=1;" parent="1" vertex="1">
          <mxGeometry x="280" y="30" width="120" height="80" as="geometry" />
        </mxCell>
        <mxCell id="Ds1F4lpZc3j_FqvIpXGs-7" value="Xem hợp đồng" style="ellipse;whiteSpace=wrap;html=1;" parent="1" vertex="1">
          <mxGeometry x="280" y="150" width="120" height="80" as="geometry" />
        </mxCell>
        <mxCell id="Ds1F4lpZc3j_FqvIpXGs-8" value="Xem phòng, thông tin dịch vụ trong tháng của bản thân" style="ellipse;whiteSpace=wrap;html=1;" parent="1" vertex="1">
          <mxGeometry x="280" y="280" width="120" height="80" as="geometry" />
        </mxCell>
        <mxCell id="Ds1F4lpZc3j_FqvIpXGs-9" value="Xem hóa đơn" style="ellipse;whiteSpace=wrap;html=1;" parent="1" vertex="1">
          <mxGeometry x="280" y="400" width="120" height="80" as="geometry" />
        </mxCell>
        <mxCell id="Ds1F4lpZc3j_FqvIpXGs-10" value="Quản lý yêu cầu/ khiếu nại" style="ellipse;whiteSpace=wrap;html=1;" parent="1" vertex="1">
          <mxGeometry x="280" y="520" width="120" height="80" as="geometry" />
        </mxCell>
        <mxCell id="Ds1F4lpZc3j_FqvIpXGs-11" value="Thanh toán" style="ellipse;whiteSpace=wrap;html=1;" parent="1" vertex="1">
          <mxGeometry x="280" y="640" width="120" height="80" as="geometry" />
        </mxCell>
        <mxCell id="Ds1F4lpZc3j_FqvIpXGs-36" style="rounded=0;orthogonalLoop=1;jettySize=auto;html=1;exitX=0;exitY=0.5;exitDx=0;exitDy=0;entryX=1;entryY=0.5;entryDx=0;entryDy=0;dashed=1;" parent="1" source="Ds1F4lpZc3j_FqvIpXGs-19" target="Ds1F4lpZc3j_FqvIpXGs-10" edge="1">
          <mxGeometry relative="1" as="geometry" />
        </mxCell>
        <mxCell id="Ds1F4lpZc3j_FqvIpXGs-38" value="&amp;lt;&amp;lt;extend&amp;gt;&amp;gt;" style="edgeLabel;html=1;align=center;verticalAlign=middle;resizable=0;points=[];" parent="Ds1F4lpZc3j_FqvIpXGs-36" vertex="1" connectable="0">
          <mxGeometry x="-0.03" y="1" relative="1" as="geometry">
            <mxPoint as="offset" />
          </mxGeometry>
        </mxCell>
        <mxCell id="Ds1F4lpZc3j_FqvIpXGs-19" value="Thêm" style="ellipse;whiteSpace=wrap;html=1;" parent="1" vertex="1">
          <mxGeometry x="570" y="440" width="120" height="80" as="geometry" />
        </mxCell>
        <mxCell id="Ds1F4lpZc3j_FqvIpXGs-37" style="rounded=0;orthogonalLoop=1;jettySize=auto;html=1;exitX=0;exitY=0.5;exitDx=0;exitDy=0;dashed=1;" parent="1" source="Ds1F4lpZc3j_FqvIpXGs-20" edge="1">
          <mxGeometry relative="1" as="geometry">
            <mxPoint x="400" y="560" as="targetPoint" />
          </mxGeometry>
        </mxCell>
        <mxCell id="Ds1F4lpZc3j_FqvIpXGs-39" value="&amp;lt;&amp;lt;extend&amp;gt;&amp;gt;" style="edgeLabel;html=1;align=center;verticalAlign=middle;resizable=0;points=[];" parent="Ds1F4lpZc3j_FqvIpXGs-37" vertex="1" connectable="0">
          <mxGeometry x="-0.2117" y="-1" relative="1" as="geometry">
            <mxPoint as="offset" />
          </mxGeometry>
        </mxCell>
        <mxCell id="Ds1F4lpZc3j_FqvIpXGs-20" value="Sửa" style="ellipse;whiteSpace=wrap;html=1;" parent="1" vertex="1">
          <mxGeometry x="580" y="560" width="120" height="80" as="geometry" />
        </mxCell>
        <mxCell id="Ds1F4lpZc3j_FqvIpXGs-41" value="Xem thông tin dịch vụ" style="ellipse;whiteSpace=wrap;html=1;" parent="1" vertex="1">
          <mxGeometry x="290" y="750" width="120" height="80" as="geometry" />
        </mxCell>
        <mxCell id="Ds1F4lpZc3j_FqvIpXGs-45" style="rounded=0;orthogonalLoop=1;jettySize=auto;html=1;exitX=1;exitY=0.3333333333333333;exitDx=0;exitDy=0;exitPerimeter=0;entryX=0;entryY=0.5;entryDx=0;entryDy=0;" parent="1" source="Ds1F4lpZc3j_FqvIpXGs-52" target="Ds1F4lpZc3j_FqvIpXGs-53" edge="1">
          <mxGeometry relative="1" as="geometry" />
        </mxCell>
        <mxCell id="Ds1F4lpZc3j_FqvIpXGs-46" style="rounded=0;orthogonalLoop=1;jettySize=auto;html=1;exitX=1;exitY=0.3333333333333333;exitDx=0;exitDy=0;exitPerimeter=0;entryX=0;entryY=0.5;entryDx=0;entryDy=0;" parent="1" source="Ds1F4lpZc3j_FqvIpXGs-52" target="Ds1F4lpZc3j_FqvIpXGs-54" edge="1">
          <mxGeometry relative="1" as="geometry" />
        </mxCell>
        <mxCell id="Ds1F4lpZc3j_FqvIpXGs-48" style="rounded=0;orthogonalLoop=1;jettySize=auto;html=1;exitX=1;exitY=0.3333333333333333;exitDx=0;exitDy=0;exitPerimeter=0;entryX=0;entryY=0.5;entryDx=0;entryDy=0;" parent="1" source="Ds1F4lpZc3j_FqvIpXGs-52" target="Ds1F4lpZc3j_FqvIpXGs-56" edge="1">
          <mxGeometry relative="1" as="geometry" />
        </mxCell>
        <mxCell id="Ds1F4lpZc3j_FqvIpXGs-49" style="rounded=0;orthogonalLoop=1;jettySize=auto;html=1;exitX=1;exitY=0.3333333333333333;exitDx=0;exitDy=0;exitPerimeter=0;entryX=0;entryY=0.5;entryDx=0;entryDy=0;" parent="1" source="Ds1F4lpZc3j_FqvIpXGs-52" target="Ds1F4lpZc3j_FqvIpXGs-57" edge="1">
          <mxGeometry relative="1" as="geometry" />
        </mxCell>
        <mxCell id="Ds1F4lpZc3j_FqvIpXGs-50" style="rounded=0;orthogonalLoop=1;jettySize=auto;html=1;exitX=1;exitY=0.3333333333333333;exitDx=0;exitDy=0;exitPerimeter=0;entryX=0;entryY=0.5;entryDx=0;entryDy=0;" parent="1" source="Ds1F4lpZc3j_FqvIpXGs-52" target="Ds1F4lpZc3j_FqvIpXGs-58" edge="1">
          <mxGeometry relative="1" as="geometry" />
        </mxCell>
        <mxCell id="Ds1F4lpZc3j_FqvIpXGs-51" style="rounded=0;orthogonalLoop=1;jettySize=auto;html=1;exitX=1;exitY=0.3333333333333333;exitDx=0;exitDy=0;exitPerimeter=0;entryX=0;entryY=0.5;entryDx=0;entryDy=0;" parent="1" source="Ds1F4lpZc3j_FqvIpXGs-52" target="Ds1F4lpZc3j_FqvIpXGs-65" edge="1">
          <mxGeometry relative="1" as="geometry">
            <mxPoint x="280" y="1679.9999999999998" as="targetPoint" />
          </mxGeometry>
        </mxCell>
        <mxCell id="Ds1F4lpZc3j_FqvIpXGs-101" style="rounded=0;orthogonalLoop=1;jettySize=auto;html=1;exitX=1;exitY=0.3333333333333333;exitDx=0;exitDy=0;exitPerimeter=0;entryX=0;entryY=0.5;entryDx=0;entryDy=0;" parent="1" source="Ds1F4lpZc3j_FqvIpXGs-52" target="Ds1F4lpZc3j_FqvIpXGs-99" edge="1">
          <mxGeometry relative="1" as="geometry" />
        </mxCell>
        <mxCell id="Ds1F4lpZc3j_FqvIpXGs-227" style="rounded=0;orthogonalLoop=1;jettySize=auto;html=1;exitX=1;exitY=0.3333333333333333;exitDx=0;exitDy=0;exitPerimeter=0;entryX=0;entryY=0.5;entryDx=0;entryDy=0;" parent="1" source="Ds1F4lpZc3j_FqvIpXGs-52" target="Ds1F4lpZc3j_FqvIpXGs-226" edge="1">
          <mxGeometry relative="1" as="geometry" />
        </mxCell>
        <mxCell id="Ds1F4lpZc3j_FqvIpXGs-52" value="Nhân viên" style="shape=umlActor;verticalLabelPosition=bottom;verticalAlign=top;html=1;outlineConnect=0;" parent="1" vertex="1">
          <mxGeometry x="90" y="1160" width="30" height="60" as="geometry" />
        </mxCell>
        <mxCell id="Ds1F4lpZc3j_FqvIpXGs-53" value="Đăng nhập" style="ellipse;whiteSpace=wrap;html=1;" parent="1" vertex="1">
          <mxGeometry x="294" y="890" width="120" height="80" as="geometry" />
        </mxCell>
        <mxCell id="Ds1F4lpZc3j_FqvIpXGs-54" value="Quản lý hợp đồng" style="ellipse;whiteSpace=wrap;html=1;" parent="1" vertex="1">
          <mxGeometry x="294" y="1000" width="120" height="80" as="geometry" />
        </mxCell>
        <mxCell id="Ds1F4lpZc3j_FqvIpXGs-56" value="Quản lý hóa đơn" style="ellipse;whiteSpace=wrap;html=1;" parent="1" vertex="1">
          <mxGeometry x="300" y="1230" width="120" height="80" as="geometry" />
        </mxCell>
        <mxCell id="Ds1F4lpZc3j_FqvIpXGs-57" value="Quản lý yêu cầu/ khiếu nại" style="ellipse;whiteSpace=wrap;html=1;" parent="1" vertex="1">
          <mxGeometry x="294" y="1480" width="120" height="80" as="geometry" />
        </mxCell>
        <mxCell id="Ds1F4lpZc3j_FqvIpXGs-58" value="Thanh toán" style="ellipse;whiteSpace=wrap;html=1;" parent="1" vertex="1">
          <mxGeometry x="310" y="1610" width="120" height="80" as="geometry" />
        </mxCell>
        <mxCell id="Ds1F4lpZc3j_FqvIpXGs-62" style="rounded=0;orthogonalLoop=1;jettySize=auto;html=1;exitX=0;exitY=0.5;exitDx=0;exitDy=0;dashed=1;entryX=1;entryY=0.5;entryDx=0;entryDy=0;" parent="1" source="Ds1F4lpZc3j_FqvIpXGs-64" target="Ds1F4lpZc3j_FqvIpXGs-57" edge="1">
          <mxGeometry relative="1" as="geometry">
            <mxPoint x="420" y="1460" as="targetPoint" />
          </mxGeometry>
        </mxCell>
        <mxCell id="Ds1F4lpZc3j_FqvIpXGs-63" value="&amp;lt;&amp;lt;extend&amp;gt;&amp;gt;" style="edgeLabel;html=1;align=center;verticalAlign=middle;resizable=0;points=[];" parent="Ds1F4lpZc3j_FqvIpXGs-62" vertex="1" connectable="0">
          <mxGeometry x="-0.2117" y="-1" relative="1" as="geometry">
            <mxPoint as="offset" />
          </mxGeometry>
        </mxCell>
        <mxCell id="Ds1F4lpZc3j_FqvIpXGs-64" value="Sửa" style="ellipse;whiteSpace=wrap;html=1;" parent="1" vertex="1">
          <mxGeometry x="570" y="1480" width="120" height="80" as="geometry" />
        </mxCell>
        <mxCell id="Ds1F4lpZc3j_FqvIpXGs-65" value="Quản lý thông tin dịch vụ cho các phòng" style="ellipse;whiteSpace=wrap;html=1;" parent="1" vertex="1">
          <mxGeometry x="320" y="1750" width="120" height="80" as="geometry" />
        </mxCell>
        <mxCell id="Ds1F4lpZc3j_FqvIpXGs-67" value="Gia hạn" style="ellipse;whiteSpace=wrap;html=1;" parent="1" vertex="1">
          <mxGeometry x="480" y="960" width="120" height="80" as="geometry" />
        </mxCell>
        <mxCell id="Ds1F4lpZc3j_FqvIpXGs-68" value="Kết thúc" style="ellipse;whiteSpace=wrap;html=1;" parent="1" vertex="1">
          <mxGeometry x="480" y="1050" width="120" height="80" as="geometry" />
        </mxCell>
        <mxCell id="Ds1F4lpZc3j_FqvIpXGs-71" style="rounded=0;orthogonalLoop=1;jettySize=auto;html=1;exitX=0;exitY=0.5;exitDx=0;exitDy=0;entryX=1;entryY=0.5;entryDx=0;entryDy=0;dashed=1;" parent="1" source="Ds1F4lpZc3j_FqvIpXGs-67" target="Ds1F4lpZc3j_FqvIpXGs-54" edge="1">
          <mxGeometry relative="1" as="geometry">
            <mxPoint x="600" y="1030" as="sourcePoint" />
            <mxPoint x="430" y="1110" as="targetPoint" />
          </mxGeometry>
        </mxCell>
        <mxCell id="Ds1F4lpZc3j_FqvIpXGs-72" value="&amp;lt;&amp;lt;extend&amp;gt;&amp;gt;" style="edgeLabel;html=1;align=center;verticalAlign=middle;resizable=0;points=[];" parent="Ds1F4lpZc3j_FqvIpXGs-71" vertex="1" connectable="0">
          <mxGeometry x="-0.03" y="1" relative="1" as="geometry">
            <mxPoint as="offset" />
          </mxGeometry>
        </mxCell>
        <mxCell id="Ds1F4lpZc3j_FqvIpXGs-73" style="rounded=0;orthogonalLoop=1;jettySize=auto;html=1;exitX=0;exitY=0.5;exitDx=0;exitDy=0;entryX=1;entryY=0.5;entryDx=0;entryDy=0;dashed=1;" parent="1" source="Ds1F4lpZc3j_FqvIpXGs-68" target="Ds1F4lpZc3j_FqvIpXGs-54" edge="1">
          <mxGeometry relative="1" as="geometry">
            <mxPoint x="590" y="1100" as="sourcePoint" />
            <mxPoint x="420" y="1180" as="targetPoint" />
          </mxGeometry>
        </mxCell>
        <mxCell id="Ds1F4lpZc3j_FqvIpXGs-74" value="&amp;lt;&amp;lt;extend&amp;gt;&amp;gt;" style="edgeLabel;html=1;align=center;verticalAlign=middle;resizable=0;points=[];" parent="Ds1F4lpZc3j_FqvIpXGs-73" vertex="1" connectable="0">
          <mxGeometry x="-0.03" y="1" relative="1" as="geometry">
            <mxPoint as="offset" />
          </mxGeometry>
        </mxCell>
        <mxCell id="Ds1F4lpZc3j_FqvIpXGs-75" value="Thêm" style="ellipse;whiteSpace=wrap;html=1;" parent="1" vertex="1">
          <mxGeometry x="480" y="860" width="120" height="80" as="geometry" />
        </mxCell>
        <mxCell id="Ds1F4lpZc3j_FqvIpXGs-76" style="rounded=0;orthogonalLoop=1;jettySize=auto;html=1;exitX=0;exitY=0.5;exitDx=0;exitDy=0;dashed=1;entryX=1;entryY=0.5;entryDx=0;entryDy=0;" parent="1" source="Ds1F4lpZc3j_FqvIpXGs-75" target="Ds1F4lpZc3j_FqvIpXGs-54" edge="1">
          <mxGeometry relative="1" as="geometry">
            <mxPoint x="560" y="890" as="sourcePoint" />
            <mxPoint x="420" y="1090" as="targetPoint" />
          </mxGeometry>
        </mxCell>
        <mxCell id="Ds1F4lpZc3j_FqvIpXGs-77" value="&amp;lt;&amp;lt;extend&amp;gt;&amp;gt;" style="edgeLabel;html=1;align=center;verticalAlign=middle;resizable=0;points=[];" parent="Ds1F4lpZc3j_FqvIpXGs-76" vertex="1" connectable="0">
          <mxGeometry x="-0.03" y="1" relative="1" as="geometry">
            <mxPoint as="offset" />
          </mxGeometry>
        </mxCell>
        <mxCell id="Ds1F4lpZc3j_FqvIpXGs-78" style="rounded=0;orthogonalLoop=1;jettySize=auto;html=1;exitX=0;exitY=0.5;exitDx=0;exitDy=0;entryX=1;entryY=0.5;entryDx=0;entryDy=0;dashed=1;" parent="1" source="Ds1F4lpZc3j_FqvIpXGs-80" target="Ds1F4lpZc3j_FqvIpXGs-54" edge="1">
          <mxGeometry relative="1" as="geometry">
            <mxPoint x="580" y="1180" as="sourcePoint" />
            <mxPoint x="450" y="1280" as="targetPoint" />
          </mxGeometry>
        </mxCell>
        <mxCell id="Ds1F4lpZc3j_FqvIpXGs-79" value="&amp;lt;&amp;lt;extend&amp;gt;&amp;gt;" style="edgeLabel;html=1;align=center;verticalAlign=middle;resizable=0;points=[];" parent="Ds1F4lpZc3j_FqvIpXGs-78" vertex="1" connectable="0">
          <mxGeometry x="-0.03" y="1" relative="1" as="geometry">
            <mxPoint as="offset" />
          </mxGeometry>
        </mxCell>
        <mxCell id="Ds1F4lpZc3j_FqvIpXGs-80" value="Chỉnh sửa" style="ellipse;whiteSpace=wrap;html=1;" parent="1" vertex="1">
          <mxGeometry x="490" y="1150" width="120" height="80" as="geometry" />
        </mxCell>
        <mxCell id="Ds1F4lpZc3j_FqvIpXGs-82" value="Cập nhật các dịch vụ của phòng đó" style="ellipse;whiteSpace=wrap;html=1;" parent="1" vertex="1">
          <mxGeometry x="550" y="1780" width="120" height="80" as="geometry" />
        </mxCell>
        <mxCell id="Ds1F4lpZc3j_FqvIpXGs-83" value="Cập nhật chỉ số điện nước" style="ellipse;whiteSpace=wrap;html=1;" parent="1" vertex="1">
          <mxGeometry x="540" y="1674" width="120" height="80" as="geometry" />
        </mxCell>
        <mxCell id="Ds1F4lpZc3j_FqvIpXGs-84" style="rounded=0;orthogonalLoop=1;jettySize=auto;html=1;exitX=0;exitY=0.5;exitDx=0;exitDy=0;dashed=1;entryX=1;entryY=0.5;entryDx=0;entryDy=0;" parent="1" source="Ds1F4lpZc3j_FqvIpXGs-83" target="Ds1F4lpZc3j_FqvIpXGs-65" edge="1">
          <mxGeometry relative="1" as="geometry">
            <mxPoint x="430" y="1670" as="targetPoint" />
            <mxPoint x="570" y="1650" as="sourcePoint" />
          </mxGeometry>
        </mxCell>
        <mxCell id="Ds1F4lpZc3j_FqvIpXGs-85" value="&amp;lt;&amp;lt;extend&amp;gt;&amp;gt;" style="edgeLabel;html=1;align=center;verticalAlign=middle;resizable=0;points=[];" parent="Ds1F4lpZc3j_FqvIpXGs-84" vertex="1" connectable="0">
          <mxGeometry x="-0.2117" y="-1" relative="1" as="geometry">
            <mxPoint as="offset" />
          </mxGeometry>
        </mxCell>
        <mxCell id="Ds1F4lpZc3j_FqvIpXGs-86" style="rounded=0;orthogonalLoop=1;jettySize=auto;html=1;exitX=0;exitY=0.5;exitDx=0;exitDy=0;dashed=1;entryX=1;entryY=0.5;entryDx=0;entryDy=0;" parent="1" source="Ds1F4lpZc3j_FqvIpXGs-82" target="Ds1F4lpZc3j_FqvIpXGs-65" edge="1">
          <mxGeometry relative="1" as="geometry">
            <mxPoint x="440" y="1690" as="targetPoint" />
            <mxPoint x="600" y="1680" as="sourcePoint" />
          </mxGeometry>
        </mxCell>
        <mxCell id="Ds1F4lpZc3j_FqvIpXGs-87" value="&amp;lt;&amp;lt;extend&amp;gt;&amp;gt;" style="edgeLabel;html=1;align=center;verticalAlign=middle;resizable=0;points=[];" parent="Ds1F4lpZc3j_FqvIpXGs-86" vertex="1" connectable="0">
          <mxGeometry x="-0.2117" y="-1" relative="1" as="geometry">
            <mxPoint as="offset" />
          </mxGeometry>
        </mxCell>
        <mxCell id="Ds1F4lpZc3j_FqvIpXGs-88" value="Thêm" style="ellipse;whiteSpace=wrap;html=1;" parent="1" vertex="1">
          <mxGeometry x="590" y="1250" width="120" height="80" as="geometry" />
        </mxCell>
        <mxCell id="Ds1F4lpZc3j_FqvIpXGs-89" value="Sửa" style="ellipse;whiteSpace=wrap;html=1;" parent="1" vertex="1">
          <mxGeometry x="590" y="1340" width="120" height="80" as="geometry" />
        </mxCell>
        <mxCell id="Ds1F4lpZc3j_FqvIpXGs-92" style="rounded=0;orthogonalLoop=1;jettySize=auto;html=1;exitX=0;exitY=0.5;exitDx=0;exitDy=0;dashed=1;entryX=1;entryY=0.5;entryDx=0;entryDy=0;" parent="1" source="Ds1F4lpZc3j_FqvIpXGs-88" target="Ds1F4lpZc3j_FqvIpXGs-56" edge="1">
          <mxGeometry relative="1" as="geometry">
            <mxPoint x="460" y="1340" as="targetPoint" />
            <mxPoint x="590" y="1370" as="sourcePoint" />
          </mxGeometry>
        </mxCell>
        <mxCell id="Ds1F4lpZc3j_FqvIpXGs-93" value="&amp;lt;&amp;lt;extend&amp;gt;&amp;gt;" style="edgeLabel;html=1;align=center;verticalAlign=middle;resizable=0;points=[];" parent="Ds1F4lpZc3j_FqvIpXGs-92" vertex="1" connectable="0">
          <mxGeometry x="-0.2117" y="-1" relative="1" as="geometry">
            <mxPoint as="offset" />
          </mxGeometry>
        </mxCell>
        <mxCell id="Ds1F4lpZc3j_FqvIpXGs-94" style="rounded=0;orthogonalLoop=1;jettySize=auto;html=1;exitX=0;exitY=0.5;exitDx=0;exitDy=0;dashed=1;entryX=1;entryY=0.5;entryDx=0;entryDy=0;" parent="1" source="Ds1F4lpZc3j_FqvIpXGs-89" target="Ds1F4lpZc3j_FqvIpXGs-56" edge="1">
          <mxGeometry relative="1" as="geometry">
            <mxPoint x="430" y="1310" as="targetPoint" />
            <mxPoint x="560" y="1340" as="sourcePoint" />
          </mxGeometry>
        </mxCell>
        <mxCell id="Ds1F4lpZc3j_FqvIpXGs-95" value="&amp;lt;&amp;lt;extend&amp;gt;&amp;gt;" style="edgeLabel;html=1;align=center;verticalAlign=middle;resizable=0;points=[];" parent="Ds1F4lpZc3j_FqvIpXGs-94" vertex="1" connectable="0">
          <mxGeometry x="-0.2117" y="-1" relative="1" as="geometry">
            <mxPoint as="offset" />
          </mxGeometry>
        </mxCell>
        <mxCell id="Ds1F4lpZc3j_FqvIpXGs-99" value="Quản lý khách thuê" style="ellipse;whiteSpace=wrap;html=1;" parent="1" vertex="1">
          <mxGeometry x="320" y="1880" width="120" height="80" as="geometry" />
        </mxCell>
        <mxCell id="Ds1F4lpZc3j_FqvIpXGs-102" value="Sửa thông tin khách thuê" style="ellipse;whiteSpace=wrap;html=1;" parent="1" vertex="1">
          <mxGeometry x="460" y="2160" width="120" height="80" as="geometry" />
        </mxCell>
        <mxCell id="Ds1F4lpZc3j_FqvIpXGs-103" style="rounded=0;orthogonalLoop=1;jettySize=auto;html=1;exitX=0;exitY=0.5;exitDx=0;exitDy=0;dashed=1;entryX=1;entryY=0.5;entryDx=0;entryDy=0;" parent="1" source="Ds1F4lpZc3j_FqvIpXGs-102" edge="1">
          <mxGeometry relative="1" as="geometry">
            <mxPoint x="360" y="2160" as="targetPoint" />
            <mxPoint x="500" y="2055" as="sourcePoint" />
          </mxGeometry>
        </mxCell>
        <mxCell id="Ds1F4lpZc3j_FqvIpXGs-104" value="&amp;lt;&amp;lt;extend&amp;gt;&amp;gt;" style="edgeLabel;html=1;align=center;verticalAlign=middle;resizable=0;points=[];" parent="Ds1F4lpZc3j_FqvIpXGs-103" vertex="1" connectable="0">
          <mxGeometry x="-0.2117" y="-1" relative="1" as="geometry">
            <mxPoint as="offset" />
          </mxGeometry>
        </mxCell>
        <mxCell id="Ds1F4lpZc3j_FqvIpXGs-105" value="Thêm" style="ellipse;whiteSpace=wrap;html=1;" parent="1" vertex="1">
          <mxGeometry x="460" y="1400" width="120" height="80" as="geometry" />
        </mxCell>
        <mxCell id="Ds1F4lpZc3j_FqvIpXGs-106" style="rounded=0;orthogonalLoop=1;jettySize=auto;html=1;exitX=0;exitY=0.5;exitDx=0;exitDy=0;dashed=1;entryX=1;entryY=0.5;entryDx=0;entryDy=0;" parent="1" source="Ds1F4lpZc3j_FqvIpXGs-105" target="Ds1F4lpZc3j_FqvIpXGs-57" edge="1">
          <mxGeometry relative="1" as="geometry">
            <mxPoint x="420" y="1460" as="targetPoint" />
            <mxPoint x="600" y="1520" as="sourcePoint" />
          </mxGeometry>
        </mxCell>
        <mxCell id="Ds1F4lpZc3j_FqvIpXGs-107" value="&amp;lt;&amp;lt;extend&amp;gt;&amp;gt;" style="edgeLabel;html=1;align=center;verticalAlign=middle;resizable=0;points=[];" parent="Ds1F4lpZc3j_FqvIpXGs-106" vertex="1" connectable="0">
          <mxGeometry x="-0.2117" y="-1" relative="1" as="geometry">
            <mxPoint as="offset" />
          </mxGeometry>
        </mxCell>
        <mxCell id="Ds1F4lpZc3j_FqvIpXGs-108" style="rounded=0;orthogonalLoop=1;jettySize=auto;html=1;exitX=1;exitY=0.3333333333333333;exitDx=0;exitDy=0;exitPerimeter=0;entryX=0;entryY=0.5;entryDx=0;entryDy=0;" parent="1" source="Ds1F4lpZc3j_FqvIpXGs-115" target="Ds1F4lpZc3j_FqvIpXGs-116" edge="1">
          <mxGeometry relative="1" as="geometry" />
        </mxCell>
        <mxCell id="Ds1F4lpZc3j_FqvIpXGs-109" style="rounded=0;orthogonalLoop=1;jettySize=auto;html=1;exitX=1;exitY=0.3333333333333333;exitDx=0;exitDy=0;exitPerimeter=0;entryX=0;entryY=0.5;entryDx=0;entryDy=0;" parent="1" source="Ds1F4lpZc3j_FqvIpXGs-115" target="Ds1F4lpZc3j_FqvIpXGs-117" edge="1">
          <mxGeometry relative="1" as="geometry" />
        </mxCell>
        <mxCell id="Ds1F4lpZc3j_FqvIpXGs-110" style="rounded=0;orthogonalLoop=1;jettySize=auto;html=1;exitX=1;exitY=0.3333333333333333;exitDx=0;exitDy=0;exitPerimeter=0;entryX=0;entryY=0.5;entryDx=0;entryDy=0;" parent="1" source="Ds1F4lpZc3j_FqvIpXGs-115" target="Ds1F4lpZc3j_FqvIpXGs-118" edge="1">
          <mxGeometry relative="1" as="geometry" />
        </mxCell>
        <mxCell id="Ds1F4lpZc3j_FqvIpXGs-111" style="rounded=0;orthogonalLoop=1;jettySize=auto;html=1;exitX=1;exitY=0.3333333333333333;exitDx=0;exitDy=0;exitPerimeter=0;entryX=0;entryY=0.5;entryDx=0;entryDy=0;" parent="1" source="Ds1F4lpZc3j_FqvIpXGs-115" target="Ds1F4lpZc3j_FqvIpXGs-119" edge="1">
          <mxGeometry relative="1" as="geometry" />
        </mxCell>
        <mxCell id="Ds1F4lpZc3j_FqvIpXGs-112" style="rounded=0;orthogonalLoop=1;jettySize=auto;html=1;exitX=1;exitY=0.3333333333333333;exitDx=0;exitDy=0;exitPerimeter=0;entryX=0;entryY=0.5;entryDx=0;entryDy=0;" parent="1" source="Ds1F4lpZc3j_FqvIpXGs-115" target="Ds1F4lpZc3j_FqvIpXGs-120" edge="1">
          <mxGeometry relative="1" as="geometry" />
        </mxCell>
        <mxCell id="Ds1F4lpZc3j_FqvIpXGs-113" style="rounded=0;orthogonalLoop=1;jettySize=auto;html=1;exitX=1;exitY=0.3333333333333333;exitDx=0;exitDy=0;exitPerimeter=0;entryX=0;entryY=0.5;entryDx=0;entryDy=0;" parent="1" source="Ds1F4lpZc3j_FqvIpXGs-115" target="Ds1F4lpZc3j_FqvIpXGs-123" edge="1">
          <mxGeometry relative="1" as="geometry">
            <mxPoint x="210" y="3110" as="targetPoint" />
          </mxGeometry>
        </mxCell>
        <mxCell id="Ds1F4lpZc3j_FqvIpXGs-114" style="rounded=0;orthogonalLoop=1;jettySize=auto;html=1;exitX=1;exitY=0.3333333333333333;exitDx=0;exitDy=0;exitPerimeter=0;entryX=0;entryY=0.5;entryDx=0;entryDy=0;" parent="1" source="Ds1F4lpZc3j_FqvIpXGs-115" target="Ds1F4lpZc3j_FqvIpXGs-146" edge="1">
          <mxGeometry relative="1" as="geometry" />
        </mxCell>
        <mxCell id="Ds1F4lpZc3j_FqvIpXGs-182" style="rounded=0;orthogonalLoop=1;jettySize=auto;html=1;exitX=1;exitY=0.3333333333333333;exitDx=0;exitDy=0;exitPerimeter=0;entryX=0;entryY=0.5;entryDx=0;entryDy=0;" parent="1" source="Ds1F4lpZc3j_FqvIpXGs-115" target="Ds1F4lpZc3j_FqvIpXGs-172" edge="1">
          <mxGeometry relative="1" as="geometry" />
        </mxCell>
        <mxCell id="Ds1F4lpZc3j_FqvIpXGs-203" style="rounded=0;orthogonalLoop=1;jettySize=auto;html=1;exitX=1;exitY=0.3333333333333333;exitDx=0;exitDy=0;exitPerimeter=0;entryX=0;entryY=0.5;entryDx=0;entryDy=0;" parent="1" source="Ds1F4lpZc3j_FqvIpXGs-115" target="Ds1F4lpZc3j_FqvIpXGs-193" edge="1">
          <mxGeometry relative="1" as="geometry" />
        </mxCell>
        <mxCell id="Ds1F4lpZc3j_FqvIpXGs-223" style="rounded=0;orthogonalLoop=1;jettySize=auto;html=1;exitX=1;exitY=0.3333333333333333;exitDx=0;exitDy=0;exitPerimeter=0;entryX=0;entryY=0.5;entryDx=0;entryDy=0;" parent="1" source="Ds1F4lpZc3j_FqvIpXGs-115" target="Ds1F4lpZc3j_FqvIpXGs-213" edge="1">
          <mxGeometry relative="1" as="geometry" />
        </mxCell>
        <mxCell id="Ds1F4lpZc3j_FqvIpXGs-224" style="rounded=0;orthogonalLoop=1;jettySize=auto;html=1;exitX=1;exitY=0.3333333333333333;exitDx=0;exitDy=0;exitPerimeter=0;entryX=0;entryY=0.5;entryDx=0;entryDy=0;" parent="1" source="Ds1F4lpZc3j_FqvIpXGs-115" target="Ds1F4lpZc3j_FqvIpXGs-225" edge="1">
          <mxGeometry relative="1" as="geometry">
            <mxPoint x="200.00000000000045" y="2280" as="targetPoint" />
          </mxGeometry>
        </mxCell>
        <mxCell id="Ds1F4lpZc3j_FqvIpXGs-115" value="Chủ trọ" style="shape=umlActor;verticalLabelPosition=bottom;verticalAlign=top;html=1;outlineConnect=0;" parent="1" vertex="1">
          <mxGeometry x="20" y="2590" width="30" height="60" as="geometry" />
        </mxCell>
        <mxCell id="Ds1F4lpZc3j_FqvIpXGs-116" value="Đăng nhập" style="ellipse;whiteSpace=wrap;html=1;" parent="1" vertex="1">
          <mxGeometry x="130" y="2300" width="120" height="80" as="geometry" />
        </mxCell>
        <mxCell id="Ds1F4lpZc3j_FqvIpXGs-117" value="Quản lý hợp đồng" style="ellipse;whiteSpace=wrap;html=1;" parent="1" vertex="1">
          <mxGeometry x="224" y="2430" width="120" height="80" as="geometry" />
        </mxCell>
        <mxCell id="Ds1F4lpZc3j_FqvIpXGs-118" value="Quản lý hóa đơn" style="ellipse;whiteSpace=wrap;html=1;" parent="1" vertex="1">
          <mxGeometry x="230" y="2660" width="120" height="80" as="geometry" />
        </mxCell>
        <mxCell id="Ds1F4lpZc3j_FqvIpXGs-119" value="Quản lý yêu cầu/ khiếu nại" style="ellipse;whiteSpace=wrap;html=1;" parent="1" vertex="1">
          <mxGeometry x="224" y="2910" width="120" height="80" as="geometry" />
        </mxCell>
        <mxCell id="Ds1F4lpZc3j_FqvIpXGs-120" value="Thanh toán" style="ellipse;whiteSpace=wrap;html=1;" parent="1" vertex="1">
          <mxGeometry x="240" y="3040" width="120" height="80" as="geometry" />
        </mxCell>
        <mxCell id="Ds1F4lpZc3j_FqvIpXGs-123" value="Quản lý thông tin dịch vụ cho các phòng" style="ellipse;whiteSpace=wrap;html=1;" parent="1" vertex="1">
          <mxGeometry x="-220" y="2260" width="120" height="80" as="geometry" />
        </mxCell>
        <mxCell id="Ds1F4lpZc3j_FqvIpXGs-124" value="Sửa" style="ellipse;whiteSpace=wrap;html=1;" parent="1" vertex="1">
          <mxGeometry x="410" y="2390" width="120" height="80" as="geometry" />
        </mxCell>
        <mxCell id="Ds1F4lpZc3j_FqvIpXGs-125" value="Xóa" style="ellipse;whiteSpace=wrap;html=1;" parent="1" vertex="1">
          <mxGeometry x="410" y="2480" width="120" height="80" as="geometry" />
        </mxCell>
        <mxCell id="Ds1F4lpZc3j_FqvIpXGs-126" style="rounded=0;orthogonalLoop=1;jettySize=auto;html=1;exitX=0;exitY=0.5;exitDx=0;exitDy=0;entryX=1;entryY=0.5;entryDx=0;entryDy=0;dashed=1;" parent="1" source="Ds1F4lpZc3j_FqvIpXGs-124" target="Ds1F4lpZc3j_FqvIpXGs-117" edge="1">
          <mxGeometry relative="1" as="geometry">
            <mxPoint x="530" y="2460" as="sourcePoint" />
            <mxPoint x="360" y="2540" as="targetPoint" />
          </mxGeometry>
        </mxCell>
        <mxCell id="Ds1F4lpZc3j_FqvIpXGs-127" value="&amp;lt;&amp;lt;extend&amp;gt;&amp;gt;" style="edgeLabel;html=1;align=center;verticalAlign=middle;resizable=0;points=[];" parent="Ds1F4lpZc3j_FqvIpXGs-126" vertex="1" connectable="0">
          <mxGeometry x="-0.03" y="1" relative="1" as="geometry">
            <mxPoint as="offset" />
          </mxGeometry>
        </mxCell>
        <mxCell id="Ds1F4lpZc3j_FqvIpXGs-128" style="rounded=0;orthogonalLoop=1;jettySize=auto;html=1;exitX=0;exitY=0.5;exitDx=0;exitDy=0;entryX=1;entryY=0.5;entryDx=0;entryDy=0;dashed=1;" parent="1" source="Ds1F4lpZc3j_FqvIpXGs-125" target="Ds1F4lpZc3j_FqvIpXGs-117" edge="1">
          <mxGeometry relative="1" as="geometry">
            <mxPoint x="520" y="2530" as="sourcePoint" />
            <mxPoint x="350" y="2610" as="targetPoint" />
          </mxGeometry>
        </mxCell>
        <mxCell id="Ds1F4lpZc3j_FqvIpXGs-129" value="&amp;lt;&amp;lt;extend&amp;gt;&amp;gt;" style="edgeLabel;html=1;align=center;verticalAlign=middle;resizable=0;points=[];" parent="Ds1F4lpZc3j_FqvIpXGs-128" vertex="1" connectable="0">
          <mxGeometry x="-0.03" y="1" relative="1" as="geometry">
            <mxPoint as="offset" />
          </mxGeometry>
        </mxCell>
        <mxCell id="Ds1F4lpZc3j_FqvIpXGs-130" value="Thêm" style="ellipse;whiteSpace=wrap;html=1;" parent="1" vertex="1">
          <mxGeometry x="410" y="2290" width="120" height="80" as="geometry" />
        </mxCell>
        <mxCell id="Ds1F4lpZc3j_FqvIpXGs-131" style="rounded=0;orthogonalLoop=1;jettySize=auto;html=1;exitX=0;exitY=0.5;exitDx=0;exitDy=0;dashed=1;entryX=1;entryY=0.5;entryDx=0;entryDy=0;" parent="1" source="Ds1F4lpZc3j_FqvIpXGs-130" target="Ds1F4lpZc3j_FqvIpXGs-117" edge="1">
          <mxGeometry relative="1" as="geometry">
            <mxPoint x="490" y="2320" as="sourcePoint" />
            <mxPoint x="350" y="2520" as="targetPoint" />
          </mxGeometry>
        </mxCell>
        <mxCell id="Ds1F4lpZc3j_FqvIpXGs-132" value="&amp;lt;&amp;lt;extend&amp;gt;&amp;gt;" style="edgeLabel;html=1;align=center;verticalAlign=middle;resizable=0;points=[];" parent="Ds1F4lpZc3j_FqvIpXGs-131" vertex="1" connectable="0">
          <mxGeometry x="-0.03" y="1" relative="1" as="geometry">
            <mxPoint as="offset" />
          </mxGeometry>
        </mxCell>
        <mxCell id="Ds1F4lpZc3j_FqvIpXGs-136" value="Cập nhật các dịch vụ của phòng đó" style="ellipse;whiteSpace=wrap;html=1;" parent="1" vertex="1">
          <mxGeometry x="-373" y="2210" width="120" height="80" as="geometry" />
        </mxCell>
        <mxCell id="Ds1F4lpZc3j_FqvIpXGs-137" value="Cập nhật chỉ số điện nước" style="ellipse;whiteSpace=wrap;html=1;" parent="1" vertex="1">
          <mxGeometry x="-170" y="1990" width="120" height="80" as="geometry" />
        </mxCell>
        <mxCell id="Ds1F4lpZc3j_FqvIpXGs-138" style="rounded=0;orthogonalLoop=1;jettySize=auto;html=1;exitX=0;exitY=0.5;exitDx=0;exitDy=0;dashed=1;entryX=0;entryY=0.5;entryDx=0;entryDy=0;" parent="1" target="Ds1F4lpZc3j_FqvIpXGs-123" edge="1">
          <mxGeometry relative="1" as="geometry">
            <mxPoint x="-110" y="2180" as="targetPoint" />
            <mxPoint x="-253" y="2180" as="sourcePoint" />
          </mxGeometry>
        </mxCell>
        <mxCell id="Ds1F4lpZc3j_FqvIpXGs-139" value="&amp;lt;&amp;lt;extend&amp;gt;&amp;gt;" style="edgeLabel;html=1;align=center;verticalAlign=middle;resizable=0;points=[];" parent="Ds1F4lpZc3j_FqvIpXGs-138" vertex="1" connectable="0">
          <mxGeometry x="-0.2117" y="-1" relative="1" as="geometry">
            <mxPoint as="offset" />
          </mxGeometry>
        </mxCell>
        <mxCell id="Ds1F4lpZc3j_FqvIpXGs-140" style="rounded=0;orthogonalLoop=1;jettySize=auto;html=1;exitX=0;exitY=0.5;exitDx=0;exitDy=0;dashed=1;entryX=0;entryY=0.5;entryDx=0;entryDy=0;" parent="1" source="Ds1F4lpZc3j_FqvIpXGs-136" target="Ds1F4lpZc3j_FqvIpXGs-123" edge="1">
          <mxGeometry relative="1" as="geometry">
            <mxPoint x="-100" y="2200" as="targetPoint" />
            <mxPoint x="60" y="2190" as="sourcePoint" />
          </mxGeometry>
        </mxCell>
        <mxCell id="Ds1F4lpZc3j_FqvIpXGs-141" value="&amp;lt;&amp;lt;extend&amp;gt;&amp;gt;" style="edgeLabel;html=1;align=center;verticalAlign=middle;resizable=0;points=[];" parent="Ds1F4lpZc3j_FqvIpXGs-140" vertex="1" connectable="0">
          <mxGeometry x="-0.2117" y="-1" relative="1" as="geometry">
            <mxPoint as="offset" />
          </mxGeometry>
        </mxCell>
        <mxCell id="Ds1F4lpZc3j_FqvIpXGs-142" style="rounded=0;orthogonalLoop=1;jettySize=auto;html=1;exitX=0;exitY=0.5;exitDx=0;exitDy=0;dashed=1;entryX=1;entryY=0.5;entryDx=0;entryDy=0;" parent="1" source="Ds1F4lpZc3j_FqvIpXGs-158" target="Ds1F4lpZc3j_FqvIpXGs-118" edge="1">
          <mxGeometry relative="1" as="geometry">
            <mxPoint x="390" y="2770" as="targetPoint" />
            <mxPoint x="520" y="2720" as="sourcePoint" />
          </mxGeometry>
        </mxCell>
        <mxCell id="Ds1F4lpZc3j_FqvIpXGs-143" value="&amp;lt;&amp;lt;extend&amp;gt;&amp;gt;" style="edgeLabel;html=1;align=center;verticalAlign=middle;resizable=0;points=[];" parent="Ds1F4lpZc3j_FqvIpXGs-142" vertex="1" connectable="0">
          <mxGeometry x="-0.2117" y="-1" relative="1" as="geometry">
            <mxPoint as="offset" />
          </mxGeometry>
        </mxCell>
        <mxCell id="Ds1F4lpZc3j_FqvIpXGs-144" style="rounded=0;orthogonalLoop=1;jettySize=auto;html=1;exitX=0;exitY=0.5;exitDx=0;exitDy=0;dashed=1;entryX=1;entryY=0.5;entryDx=0;entryDy=0;" parent="1" source="Ds1F4lpZc3j_FqvIpXGs-159" target="Ds1F4lpZc3j_FqvIpXGs-118" edge="1">
          <mxGeometry relative="1" as="geometry">
            <mxPoint x="360" y="2740" as="targetPoint" />
            <mxPoint x="520" y="2810" as="sourcePoint" />
          </mxGeometry>
        </mxCell>
        <mxCell id="Ds1F4lpZc3j_FqvIpXGs-145" value="&amp;lt;&amp;lt;extend&amp;gt;&amp;gt;" style="edgeLabel;html=1;align=center;verticalAlign=middle;resizable=0;points=[];" parent="Ds1F4lpZc3j_FqvIpXGs-144" vertex="1" connectable="0">
          <mxGeometry x="-0.2117" y="-1" relative="1" as="geometry">
            <mxPoint as="offset" />
          </mxGeometry>
        </mxCell>
        <mxCell id="Ds1F4lpZc3j_FqvIpXGs-146" value="Quản lý khách thuê" style="ellipse;whiteSpace=wrap;html=1;" parent="1" vertex="1">
          <mxGeometry x="-20" y="2850" width="120" height="80" as="geometry" />
        </mxCell>
        <mxCell id="Ds1F4lpZc3j_FqvIpXGs-157" value="Thêm" style="ellipse;whiteSpace=wrap;html=1;" parent="1" vertex="1">
          <mxGeometry x="540" y="2570" width="120" height="80" as="geometry" />
        </mxCell>
        <mxCell id="Ds1F4lpZc3j_FqvIpXGs-158" value="Sửa" style="ellipse;whiteSpace=wrap;html=1;" parent="1" vertex="1">
          <mxGeometry x="550" y="2660" width="120" height="80" as="geometry" />
        </mxCell>
        <mxCell id="Ds1F4lpZc3j_FqvIpXGs-159" value="Xóa" style="ellipse;whiteSpace=wrap;html=1;" parent="1" vertex="1">
          <mxGeometry x="550" y="2760" width="120" height="80" as="geometry" />
        </mxCell>
        <mxCell id="Ds1F4lpZc3j_FqvIpXGs-160" style="rounded=0;orthogonalLoop=1;jettySize=auto;html=1;exitX=0;exitY=0.5;exitDx=0;exitDy=0;dashed=1;entryX=1;entryY=0.5;entryDx=0;entryDy=0;" parent="1" source="Ds1F4lpZc3j_FqvIpXGs-157" target="Ds1F4lpZc3j_FqvIpXGs-118" edge="1">
          <mxGeometry relative="1" as="geometry">
            <mxPoint x="360" y="2710" as="targetPoint" />
            <mxPoint x="560" y="2710" as="sourcePoint" />
          </mxGeometry>
        </mxCell>
        <mxCell id="Ds1F4lpZc3j_FqvIpXGs-161" value="&amp;lt;&amp;lt;extend&amp;gt;&amp;gt;" style="edgeLabel;html=1;align=center;verticalAlign=middle;resizable=0;points=[];" parent="Ds1F4lpZc3j_FqvIpXGs-160" vertex="1" connectable="0">
          <mxGeometry x="-0.2117" y="-1" relative="1" as="geometry">
            <mxPoint as="offset" />
          </mxGeometry>
        </mxCell>
        <mxCell id="Ds1F4lpZc3j_FqvIpXGs-163" style="rounded=0;orthogonalLoop=1;jettySize=auto;html=1;exitX=0;exitY=0.5;exitDx=0;exitDy=0;dashed=1;" parent="1" source="Ds1F4lpZc3j_FqvIpXGs-168" edge="1">
          <mxGeometry relative="1" as="geometry">
            <mxPoint x="350" y="2950" as="targetPoint" />
            <mxPoint x="550" y="2990" as="sourcePoint" />
          </mxGeometry>
        </mxCell>
        <mxCell id="Ds1F4lpZc3j_FqvIpXGs-164" value="&amp;lt;&amp;lt;extend&amp;gt;&amp;gt;" style="edgeLabel;html=1;align=center;verticalAlign=middle;resizable=0;points=[];" parent="Ds1F4lpZc3j_FqvIpXGs-163" vertex="1" connectable="0">
          <mxGeometry x="-0.2117" y="-1" relative="1" as="geometry">
            <mxPoint as="offset" />
          </mxGeometry>
        </mxCell>
        <mxCell id="Ds1F4lpZc3j_FqvIpXGs-165" style="rounded=0;orthogonalLoop=1;jettySize=auto;html=1;exitX=0;exitY=0.5;exitDx=0;exitDy=0;dashed=1;" parent="1" source="Ds1F4lpZc3j_FqvIpXGs-169" edge="1">
          <mxGeometry relative="1" as="geometry">
            <mxPoint x="340" y="2950" as="targetPoint" />
            <mxPoint x="550" y="3080" as="sourcePoint" />
          </mxGeometry>
        </mxCell>
        <mxCell id="Ds1F4lpZc3j_FqvIpXGs-166" value="&amp;lt;&amp;lt;extend&amp;gt;&amp;gt;" style="edgeLabel;html=1;align=center;verticalAlign=middle;resizable=0;points=[];" parent="Ds1F4lpZc3j_FqvIpXGs-165" vertex="1" connectable="0">
          <mxGeometry x="-0.2117" y="-1" relative="1" as="geometry">
            <mxPoint as="offset" />
          </mxGeometry>
        </mxCell>
        <mxCell id="Ds1F4lpZc3j_FqvIpXGs-167" value="Thêm" style="ellipse;whiteSpace=wrap;html=1;" parent="1" vertex="1">
          <mxGeometry x="570" y="2840" width="120" height="80" as="geometry" />
        </mxCell>
        <mxCell id="Ds1F4lpZc3j_FqvIpXGs-168" value="Sửa" style="ellipse;whiteSpace=wrap;html=1;" parent="1" vertex="1">
          <mxGeometry x="580" y="2930" width="120" height="80" as="geometry" />
        </mxCell>
        <mxCell id="Ds1F4lpZc3j_FqvIpXGs-169" value="Xóa" style="ellipse;whiteSpace=wrap;html=1;" parent="1" vertex="1">
          <mxGeometry x="580" y="3030" width="120" height="80" as="geometry" />
        </mxCell>
        <mxCell id="Ds1F4lpZc3j_FqvIpXGs-170" style="rounded=0;orthogonalLoop=1;jettySize=auto;html=1;exitX=0;exitY=0.5;exitDx=0;exitDy=0;dashed=1;entryX=1;entryY=0.5;entryDx=0;entryDy=0;" parent="1" source="Ds1F4lpZc3j_FqvIpXGs-167" target="Ds1F4lpZc3j_FqvIpXGs-119" edge="1">
          <mxGeometry relative="1" as="geometry">
            <mxPoint x="380" y="2970" as="targetPoint" />
            <mxPoint x="590" y="2980" as="sourcePoint" />
          </mxGeometry>
        </mxCell>
        <mxCell id="Ds1F4lpZc3j_FqvIpXGs-171" value="&amp;lt;&amp;lt;extend&amp;gt;&amp;gt;" style="edgeLabel;html=1;align=center;verticalAlign=middle;resizable=0;points=[];" parent="Ds1F4lpZc3j_FqvIpXGs-170" vertex="1" connectable="0">
          <mxGeometry x="-0.2117" y="-1" relative="1" as="geometry">
            <mxPoint as="offset" />
          </mxGeometry>
        </mxCell>
        <mxCell id="Ds1F4lpZc3j_FqvIpXGs-172" value="Quản lý phòng" style="ellipse;whiteSpace=wrap;html=1;" parent="1" vertex="1">
          <mxGeometry x="-186" y="2560" width="120" height="80" as="geometry" />
        </mxCell>
        <mxCell id="Ds1F4lpZc3j_FqvIpXGs-173" style="rounded=0;orthogonalLoop=1;jettySize=auto;html=1;exitX=0;exitY=0.5;exitDx=0;exitDy=0;dashed=1;entryX=1;entryY=0.5;entryDx=0;entryDy=0;" parent="1" source="Ds1F4lpZc3j_FqvIpXGs-178" target="Ds1F4lpZc3j_FqvIpXGs-172" edge="1">
          <mxGeometry relative="1" as="geometry">
            <mxPoint x="-280" y="3210" as="targetPoint" />
            <mxPoint x="-110" y="3230" as="sourcePoint" />
          </mxGeometry>
        </mxCell>
        <mxCell id="Ds1F4lpZc3j_FqvIpXGs-174" value="&amp;lt;&amp;lt;extend&amp;gt;&amp;gt;" style="edgeLabel;html=1;align=center;verticalAlign=middle;resizable=0;points=[];" parent="Ds1F4lpZc3j_FqvIpXGs-173" vertex="1" connectable="0">
          <mxGeometry x="-0.2117" y="-1" relative="1" as="geometry">
            <mxPoint as="offset" />
          </mxGeometry>
        </mxCell>
        <mxCell id="Ds1F4lpZc3j_FqvIpXGs-175" style="rounded=0;orthogonalLoop=1;jettySize=auto;html=1;exitX=0;exitY=0.5;exitDx=0;exitDy=0;dashed=1;entryX=1;entryY=0.5;entryDx=0;entryDy=0;" parent="1" source="Ds1F4lpZc3j_FqvIpXGs-179" target="Ds1F4lpZc3j_FqvIpXGs-172" edge="1">
          <mxGeometry relative="1" as="geometry">
            <mxPoint x="-280" y="3210" as="targetPoint" />
            <mxPoint x="-110" y="3320" as="sourcePoint" />
          </mxGeometry>
        </mxCell>
        <mxCell id="Ds1F4lpZc3j_FqvIpXGs-176" value="&amp;lt;&amp;lt;extend&amp;gt;&amp;gt;" style="edgeLabel;html=1;align=center;verticalAlign=middle;resizable=0;points=[];" parent="Ds1F4lpZc3j_FqvIpXGs-175" vertex="1" connectable="0">
          <mxGeometry x="-0.2117" y="-1" relative="1" as="geometry">
            <mxPoint as="offset" />
          </mxGeometry>
        </mxCell>
        <mxCell id="Ds1F4lpZc3j_FqvIpXGs-177" value="Thêm" style="ellipse;whiteSpace=wrap;html=1;" parent="1" vertex="1">
          <mxGeometry x="-380" y="2350" width="120" height="80" as="geometry" />
        </mxCell>
        <mxCell id="Ds1F4lpZc3j_FqvIpXGs-178" value="Sửa" style="ellipse;whiteSpace=wrap;html=1;" parent="1" vertex="1">
          <mxGeometry x="-270" y="2700" width="120" height="80" as="geometry" />
        </mxCell>
        <mxCell id="Ds1F4lpZc3j_FqvIpXGs-179" value="Xóa" style="ellipse;whiteSpace=wrap;html=1;" parent="1" vertex="1">
          <mxGeometry x="-390" y="2630" width="120" height="80" as="geometry" />
        </mxCell>
        <mxCell id="Ds1F4lpZc3j_FqvIpXGs-180" style="rounded=0;orthogonalLoop=1;jettySize=auto;html=1;exitX=0;exitY=0.5;exitDx=0;exitDy=0;dashed=1;entryX=0;entryY=0.5;entryDx=0;entryDy=0;" parent="1" source="Ds1F4lpZc3j_FqvIpXGs-177" edge="1" target="Ds1F4lpZc3j_FqvIpXGs-172">
          <mxGeometry relative="1" as="geometry">
            <mxPoint x="-310" y="3210" as="targetPoint" />
            <mxPoint x="-70" y="3220" as="sourcePoint" />
          </mxGeometry>
        </mxCell>
        <mxCell id="Ds1F4lpZc3j_FqvIpXGs-181" value="&amp;lt;&amp;lt;extend&amp;gt;&amp;gt;" style="edgeLabel;html=1;align=center;verticalAlign=middle;resizable=0;points=[];" parent="Ds1F4lpZc3j_FqvIpXGs-180" vertex="1" connectable="0">
          <mxGeometry x="-0.2117" y="-1" relative="1" as="geometry">
            <mxPoint as="offset" />
          </mxGeometry>
        </mxCell>
        <mxCell id="Ds1F4lpZc3j_FqvIpXGs-183" style="rounded=0;orthogonalLoop=1;jettySize=auto;html=1;exitX=0;exitY=0.5;exitDx=0;exitDy=0;dashed=1;entryX=1;entryY=0.5;entryDx=0;entryDy=0;" parent="1" source="Ds1F4lpZc3j_FqvIpXGs-188" target="Ds1F4lpZc3j_FqvIpXGs-146" edge="1">
          <mxGeometry relative="1" as="geometry">
            <mxPoint x="-230" y="3480" as="targetPoint" />
            <mxPoint x="-50" y="3510" as="sourcePoint" />
          </mxGeometry>
        </mxCell>
        <mxCell id="Ds1F4lpZc3j_FqvIpXGs-184" value="&amp;lt;&amp;lt;extend&amp;gt;&amp;gt;" style="edgeLabel;html=1;align=center;verticalAlign=middle;resizable=0;points=[];" parent="Ds1F4lpZc3j_FqvIpXGs-183" vertex="1" connectable="0">
          <mxGeometry x="-0.2117" y="-1" relative="1" as="geometry">
            <mxPoint as="offset" />
          </mxGeometry>
        </mxCell>
        <mxCell id="Ds1F4lpZc3j_FqvIpXGs-185" style="rounded=0;orthogonalLoop=1;jettySize=auto;html=1;exitX=0;exitY=0.5;exitDx=0;exitDy=0;dashed=1;entryX=1;entryY=0.5;entryDx=0;entryDy=0;" parent="1" source="Ds1F4lpZc3j_FqvIpXGs-189" target="Ds1F4lpZc3j_FqvIpXGs-146" edge="1">
          <mxGeometry relative="1" as="geometry">
            <mxPoint x="-220" y="3490" as="targetPoint" />
            <mxPoint x="-50" y="3600" as="sourcePoint" />
          </mxGeometry>
        </mxCell>
        <mxCell id="Ds1F4lpZc3j_FqvIpXGs-186" value="&amp;lt;&amp;lt;extend&amp;gt;&amp;gt;" style="edgeLabel;html=1;align=center;verticalAlign=middle;resizable=0;points=[];" parent="Ds1F4lpZc3j_FqvIpXGs-185" vertex="1" connectable="0">
          <mxGeometry x="-0.2117" y="-1" relative="1" as="geometry">
            <mxPoint as="offset" />
          </mxGeometry>
        </mxCell>
        <mxCell id="Ds1F4lpZc3j_FqvIpXGs-187" value="Thêm" style="ellipse;whiteSpace=wrap;html=1;" parent="1" vertex="1">
          <mxGeometry x="-70" y="3020" width="120" height="80" as="geometry" />
        </mxCell>
        <mxCell id="Ds1F4lpZc3j_FqvIpXGs-188" value="Sửa" style="ellipse;whiteSpace=wrap;html=1;" parent="1" vertex="1">
          <mxGeometry x="85" y="3083" width="120" height="80" as="geometry" />
        </mxCell>
        <mxCell id="Ds1F4lpZc3j_FqvIpXGs-189" value="Xóa" style="ellipse;whiteSpace=wrap;html=1;" parent="1" vertex="1">
          <mxGeometry x="10" y="3190" width="120" height="80" as="geometry" />
        </mxCell>
        <mxCell id="Ds1F4lpZc3j_FqvIpXGs-190" style="rounded=0;orthogonalLoop=1;jettySize=auto;html=1;exitX=0;exitY=0.5;exitDx=0;exitDy=0;dashed=1;entryX=1;entryY=0.625;entryDx=0;entryDy=0;entryPerimeter=0;" parent="1" source="Ds1F4lpZc3j_FqvIpXGs-187" target="Ds1F4lpZc3j_FqvIpXGs-146" edge="1">
          <mxGeometry relative="1" as="geometry">
            <mxPoint x="-220" y="3490" as="targetPoint" />
            <mxPoint x="-10" y="3500" as="sourcePoint" />
          </mxGeometry>
        </mxCell>
        <mxCell id="Ds1F4lpZc3j_FqvIpXGs-191" value="&amp;lt;&amp;lt;extend&amp;gt;&amp;gt;" style="edgeLabel;html=1;align=center;verticalAlign=middle;resizable=0;points=[];" parent="Ds1F4lpZc3j_FqvIpXGs-190" vertex="1" connectable="0">
          <mxGeometry x="-0.2117" y="-1" relative="1" as="geometry">
            <mxPoint as="offset" />
          </mxGeometry>
        </mxCell>
        <mxCell id="Ds1F4lpZc3j_FqvIpXGs-193" value="Quản lý tài khoản" style="ellipse;whiteSpace=wrap;html=1;" parent="1" vertex="1">
          <mxGeometry x="-200" y="2840" width="120" height="80" as="geometry" />
        </mxCell>
        <mxCell id="Ds1F4lpZc3j_FqvIpXGs-194" style="rounded=0;orthogonalLoop=1;jettySize=auto;html=1;exitX=0;exitY=0.5;exitDx=0;exitDy=0;dashed=1;" parent="1" source="Ds1F4lpZc3j_FqvIpXGs-199" edge="1">
          <mxGeometry relative="1" as="geometry">
            <mxPoint x="-80" y="2880" as="targetPoint" />
            <mxPoint x="104" y="2900" as="sourcePoint" />
          </mxGeometry>
        </mxCell>
        <mxCell id="Ds1F4lpZc3j_FqvIpXGs-195" value="&amp;lt;&amp;lt;extend&amp;gt;&amp;gt;" style="edgeLabel;html=1;align=center;verticalAlign=middle;resizable=0;points=[];" parent="Ds1F4lpZc3j_FqvIpXGs-194" vertex="1" connectable="0">
          <mxGeometry x="-0.2117" y="-1" relative="1" as="geometry">
            <mxPoint as="offset" />
          </mxGeometry>
        </mxCell>
        <mxCell id="Ds1F4lpZc3j_FqvIpXGs-196" style="rounded=0;orthogonalLoop=1;jettySize=auto;html=1;exitX=0;exitY=0.5;exitDx=0;exitDy=0;dashed=1;" parent="1" source="Ds1F4lpZc3j_FqvIpXGs-200" edge="1">
          <mxGeometry relative="1" as="geometry">
            <mxPoint x="-80" y="2880" as="targetPoint" />
            <mxPoint x="104" y="2990" as="sourcePoint" />
          </mxGeometry>
        </mxCell>
        <mxCell id="Ds1F4lpZc3j_FqvIpXGs-197" value="&amp;lt;&amp;lt;extend&amp;gt;&amp;gt;" style="edgeLabel;html=1;align=center;verticalAlign=middle;resizable=0;points=[];" parent="Ds1F4lpZc3j_FqvIpXGs-196" vertex="1" connectable="0">
          <mxGeometry x="-0.2117" y="-1" relative="1" as="geometry">
            <mxPoint as="offset" />
          </mxGeometry>
        </mxCell>
        <mxCell id="Ds1F4lpZc3j_FqvIpXGs-198" value="Thêm" style="ellipse;whiteSpace=wrap;html=1;" parent="1" vertex="1">
          <mxGeometry x="-400" y="2770" width="120" height="80" as="geometry" />
        </mxCell>
        <mxCell id="Ds1F4lpZc3j_FqvIpXGs-199" value="Sửa" style="ellipse;whiteSpace=wrap;html=1;" parent="1" vertex="1">
          <mxGeometry x="-440" y="2940" width="120" height="80" as="geometry" />
        </mxCell>
        <mxCell id="Ds1F4lpZc3j_FqvIpXGs-200" value="Xóa" style="ellipse;whiteSpace=wrap;html=1;" parent="1" vertex="1">
          <mxGeometry x="-253" y="2970" width="120" height="80" as="geometry" />
        </mxCell>
        <mxCell id="Ds1F4lpZc3j_FqvIpXGs-201" style="rounded=0;orthogonalLoop=1;jettySize=auto;html=1;exitX=0;exitY=0.5;exitDx=0;exitDy=0;dashed=1;entryX=1;entryY=0.5;entryDx=0;entryDy=0;entryPerimeter=0;" parent="1" source="Ds1F4lpZc3j_FqvIpXGs-198" target="Ds1F4lpZc3j_FqvIpXGs-193" edge="1">
          <mxGeometry relative="1" as="geometry">
            <mxPoint x="-66" y="2880" as="targetPoint" />
            <mxPoint x="144" y="2890" as="sourcePoint" />
          </mxGeometry>
        </mxCell>
        <mxCell id="Ds1F4lpZc3j_FqvIpXGs-202" value="&amp;lt;&amp;lt;extend&amp;gt;&amp;gt;" style="edgeLabel;html=1;align=center;verticalAlign=middle;resizable=0;points=[];" parent="Ds1F4lpZc3j_FqvIpXGs-201" vertex="1" connectable="0">
          <mxGeometry x="-0.2117" y="-1" relative="1" as="geometry">
            <mxPoint as="offset" />
          </mxGeometry>
        </mxCell>
        <mxCell id="Ds1F4lpZc3j_FqvIpXGs-213" value="Quản lý vai trò" style="ellipse;whiteSpace=wrap;html=1;" parent="1" vertex="1">
          <mxGeometry x="230" y="3240" width="120" height="80" as="geometry" />
        </mxCell>
        <mxCell id="Ds1F4lpZc3j_FqvIpXGs-214" style="rounded=0;orthogonalLoop=1;jettySize=auto;html=1;exitX=0;exitY=0.5;exitDx=0;exitDy=0;dashed=1;" parent="1" source="Ds1F4lpZc3j_FqvIpXGs-219" edge="1">
          <mxGeometry relative="1" as="geometry">
            <mxPoint x="350" y="3280" as="targetPoint" />
            <mxPoint x="534" y="3300" as="sourcePoint" />
          </mxGeometry>
        </mxCell>
        <mxCell id="Ds1F4lpZc3j_FqvIpXGs-215" value="&amp;lt;&amp;lt;extend&amp;gt;&amp;gt;" style="edgeLabel;html=1;align=center;verticalAlign=middle;resizable=0;points=[];" parent="Ds1F4lpZc3j_FqvIpXGs-214" vertex="1" connectable="0">
          <mxGeometry x="-0.2117" y="-1" relative="1" as="geometry">
            <mxPoint as="offset" />
          </mxGeometry>
        </mxCell>
        <mxCell id="Ds1F4lpZc3j_FqvIpXGs-216" style="rounded=0;orthogonalLoop=1;jettySize=auto;html=1;exitX=0;exitY=0.5;exitDx=0;exitDy=0;dashed=1;" parent="1" source="Ds1F4lpZc3j_FqvIpXGs-220" edge="1">
          <mxGeometry relative="1" as="geometry">
            <mxPoint x="350" y="3280" as="targetPoint" />
            <mxPoint x="534" y="3390" as="sourcePoint" />
          </mxGeometry>
        </mxCell>
        <mxCell id="Ds1F4lpZc3j_FqvIpXGs-217" value="&amp;lt;&amp;lt;extend&amp;gt;&amp;gt;" style="edgeLabel;html=1;align=center;verticalAlign=middle;resizable=0;points=[];" parent="Ds1F4lpZc3j_FqvIpXGs-216" vertex="1" connectable="0">
          <mxGeometry x="-0.2117" y="-1" relative="1" as="geometry">
            <mxPoint as="offset" />
          </mxGeometry>
        </mxCell>
        <mxCell id="Ds1F4lpZc3j_FqvIpXGs-218" value="Thêm" style="ellipse;whiteSpace=wrap;html=1;" parent="1" vertex="1">
          <mxGeometry x="554" y="3150" width="120" height="80" as="geometry" />
        </mxCell>
        <mxCell id="Ds1F4lpZc3j_FqvIpXGs-219" value="Sửa" style="ellipse;whiteSpace=wrap;html=1;" parent="1" vertex="1">
          <mxGeometry x="564" y="3240" width="120" height="80" as="geometry" />
        </mxCell>
        <mxCell id="Ds1F4lpZc3j_FqvIpXGs-220" value="Xóa" style="ellipse;whiteSpace=wrap;html=1;" parent="1" vertex="1">
          <mxGeometry x="564" y="3340" width="120" height="80" as="geometry" />
        </mxCell>
        <mxCell id="Ds1F4lpZc3j_FqvIpXGs-221" style="rounded=0;orthogonalLoop=1;jettySize=auto;html=1;exitX=0;exitY=0.5;exitDx=0;exitDy=0;dashed=1;entryX=1;entryY=0.5;entryDx=0;entryDy=0;entryPerimeter=0;" parent="1" source="Ds1F4lpZc3j_FqvIpXGs-218" target="Ds1F4lpZc3j_FqvIpXGs-213" edge="1">
          <mxGeometry relative="1" as="geometry">
            <mxPoint x="364" y="3280" as="targetPoint" />
            <mxPoint x="574" y="3290" as="sourcePoint" />
          </mxGeometry>
        </mxCell>
        <mxCell id="Ds1F4lpZc3j_FqvIpXGs-222" value="&amp;lt;&amp;lt;extend&amp;gt;&amp;gt;" style="edgeLabel;html=1;align=center;verticalAlign=middle;resizable=0;points=[];" parent="Ds1F4lpZc3j_FqvIpXGs-221" vertex="1" connectable="0">
          <mxGeometry x="-0.2117" y="-1" relative="1" as="geometry">
            <mxPoint as="offset" />
          </mxGeometry>
        </mxCell>
        <mxCell id="Ds1F4lpZc3j_FqvIpXGs-225" value="Tìm kiếm" style="ellipse;whiteSpace=wrap;html=1;" parent="1" vertex="1">
          <mxGeometry x="-35" y="2250" width="120" height="80" as="geometry" />
        </mxCell>
        <mxCell id="Ds1F4lpZc3j_FqvIpXGs-226" value="Tìm kiếm" style="ellipse;whiteSpace=wrap;html=1;" parent="1" vertex="1">
          <mxGeometry x="300" y="1360" width="120" height="80" as="geometry" />
        </mxCell>
        <mxCell id="Ds1F4lpZc3j_FqvIpXGs-414" style="rounded=0;orthogonalLoop=1;jettySize=auto;html=1;exitX=1;exitY=0.3333333333333333;exitDx=0;exitDy=0;exitPerimeter=0;entryX=0;entryY=0.5;entryDx=0;entryDy=0;" parent="1" source="Ds1F4lpZc3j_FqvIpXGs-425" target="Ds1F4lpZc3j_FqvIpXGs-426" edge="1">
          <mxGeometry relative="1" as="geometry" />
        </mxCell>
        <mxCell id="Ds1F4lpZc3j_FqvIpXGs-415" style="rounded=0;orthogonalLoop=1;jettySize=auto;html=1;exitX=1;exitY=0.3333333333333333;exitDx=0;exitDy=0;exitPerimeter=0;entryX=0;entryY=0.5;entryDx=0;entryDy=0;" parent="1" source="Ds1F4lpZc3j_FqvIpXGs-425" target="Ds1F4lpZc3j_FqvIpXGs-427" edge="1">
          <mxGeometry relative="1" as="geometry" />
        </mxCell>
        <mxCell id="Ds1F4lpZc3j_FqvIpXGs-416" style="rounded=0;orthogonalLoop=1;jettySize=auto;html=1;exitX=1;exitY=0.3333333333333333;exitDx=0;exitDy=0;exitPerimeter=0;entryX=0;entryY=0.5;entryDx=0;entryDy=0;" parent="1" source="Ds1F4lpZc3j_FqvIpXGs-425" target="Ds1F4lpZc3j_FqvIpXGs-428" edge="1">
          <mxGeometry relative="1" as="geometry" />
        </mxCell>
        <mxCell id="Ds1F4lpZc3j_FqvIpXGs-417" style="rounded=0;orthogonalLoop=1;jettySize=auto;html=1;exitX=1;exitY=0.3333333333333333;exitDx=0;exitDy=0;exitPerimeter=0;entryX=0;entryY=0.5;entryDx=0;entryDy=0;" parent="1" source="Ds1F4lpZc3j_FqvIpXGs-425" target="Ds1F4lpZc3j_FqvIpXGs-429" edge="1">
          <mxGeometry relative="1" as="geometry" />
        </mxCell>
        <mxCell id="Ds1F4lpZc3j_FqvIpXGs-418" style="rounded=0;orthogonalLoop=1;jettySize=auto;html=1;exitX=1;exitY=0.3333333333333333;exitDx=0;exitDy=0;exitPerimeter=0;entryX=0;entryY=0.5;entryDx=0;entryDy=0;" parent="1" source="Ds1F4lpZc3j_FqvIpXGs-425" target="Ds1F4lpZc3j_FqvIpXGs-430" edge="1">
          <mxGeometry relative="1" as="geometry" />
        </mxCell>
        <mxCell id="Ds1F4lpZc3j_FqvIpXGs-419" style="rounded=0;orthogonalLoop=1;jettySize=auto;html=1;exitX=1;exitY=0.3333333333333333;exitDx=0;exitDy=0;exitPerimeter=0;entryX=0;entryY=0.5;entryDx=0;entryDy=0;" parent="1" source="Ds1F4lpZc3j_FqvIpXGs-425" target="Ds1F4lpZc3j_FqvIpXGs-431" edge="1">
          <mxGeometry relative="1" as="geometry">
            <mxPoint x="330" y="5870" as="targetPoint" />
          </mxGeometry>
        </mxCell>
        <mxCell id="Ds1F4lpZc3j_FqvIpXGs-420" style="rounded=0;orthogonalLoop=1;jettySize=auto;html=1;exitX=1;exitY=0.3333333333333333;exitDx=0;exitDy=0;exitPerimeter=0;entryX=0;entryY=0.5;entryDx=0;entryDy=0;" parent="1" source="Ds1F4lpZc3j_FqvIpXGs-425" target="Ds1F4lpZc3j_FqvIpXGs-451" edge="1">
          <mxGeometry relative="1" as="geometry" />
        </mxCell>
        <mxCell id="Ds1F4lpZc3j_FqvIpXGs-421" style="rounded=0;orthogonalLoop=1;jettySize=auto;html=1;exitX=1;exitY=0.3333333333333333;exitDx=0;exitDy=0;exitPerimeter=0;entryX=0;entryY=0.5;entryDx=0;entryDy=0;" parent="1" source="Ds1F4lpZc3j_FqvIpXGs-425" target="Ds1F4lpZc3j_FqvIpXGs-466" edge="1">
          <mxGeometry relative="1" as="geometry" />
        </mxCell>
        <mxCell id="Ds1F4lpZc3j_FqvIpXGs-422" style="rounded=0;orthogonalLoop=1;jettySize=auto;html=1;exitX=1;exitY=0.3333333333333333;exitDx=0;exitDy=0;exitPerimeter=0;entryX=0;entryY=0.5;entryDx=0;entryDy=0;" parent="1" source="Ds1F4lpZc3j_FqvIpXGs-425" target="Ds1F4lpZc3j_FqvIpXGs-485" edge="1">
          <mxGeometry relative="1" as="geometry" />
        </mxCell>
        <mxCell id="Ds1F4lpZc3j_FqvIpXGs-423" style="rounded=0;orthogonalLoop=1;jettySize=auto;html=1;exitX=1;exitY=0.3333333333333333;exitDx=0;exitDy=0;exitPerimeter=0;entryX=0;entryY=0.5;entryDx=0;entryDy=0;" parent="1" source="Ds1F4lpZc3j_FqvIpXGs-425" target="Ds1F4lpZc3j_FqvIpXGs-495" edge="1">
          <mxGeometry relative="1" as="geometry" />
        </mxCell>
        <mxCell id="Ds1F4lpZc3j_FqvIpXGs-424" style="rounded=0;orthogonalLoop=1;jettySize=auto;html=1;exitX=1;exitY=0.3333333333333333;exitDx=0;exitDy=0;exitPerimeter=0;entryX=0;entryY=0.5;entryDx=0;entryDy=0;" parent="1" source="Ds1F4lpZc3j_FqvIpXGs-425" target="Ds1F4lpZc3j_FqvIpXGs-505" edge="1">
          <mxGeometry relative="1" as="geometry">
            <mxPoint x="320.00000000000045" y="5040" as="targetPoint" />
          </mxGeometry>
        </mxCell>
        <mxCell id="Ds1F4lpZc3j_FqvIpXGs-425" value="Chủ trọ" style="shape=umlActor;verticalLabelPosition=bottom;verticalAlign=top;html=1;outlineConnect=0;" parent="1" vertex="1">
          <mxGeometry x="140" y="5350" width="30" height="60" as="geometry" />
        </mxCell>
        <mxCell id="Ds1F4lpZc3j_FqvIpXGs-426" value="Đăng nhập" style="ellipse;whiteSpace=wrap;html=1;" parent="1" vertex="1">
          <mxGeometry x="100" y="5200" width="120" height="80" as="geometry" />
        </mxCell>
        <mxCell id="Ds1F4lpZc3j_FqvIpXGs-427" value="Quản lý hợp đồng" style="ellipse;whiteSpace=wrap;html=1;" parent="1" vertex="1">
          <mxGeometry x="344" y="5190" width="120" height="80" as="geometry" />
        </mxCell>
        <mxCell id="Ds1F4lpZc3j_FqvIpXGs-428" value="Quản lý hóa đơn" style="ellipse;whiteSpace=wrap;html=1;" parent="1" vertex="1">
          <mxGeometry x="290" y="5340" width="120" height="80" as="geometry" />
        </mxCell>
        <mxCell id="Ds1F4lpZc3j_FqvIpXGs-429" value="Quản lý yêu cầu/ khiếu nại" style="ellipse;whiteSpace=wrap;html=1;" parent="1" vertex="1">
          <mxGeometry x="344" y="5670" width="120" height="80" as="geometry" />
        </mxCell>
        <mxCell id="Ds1F4lpZc3j_FqvIpXGs-430" value="Thanh toán" style="ellipse;whiteSpace=wrap;html=1;" parent="1" vertex="1">
          <mxGeometry x="310" y="5510" width="120" height="80" as="geometry" />
        </mxCell>
        <mxCell id="Ds1F4lpZc3j_FqvIpXGs-431" value="Quản lý thông tin dịch vụ cho các phòng" style="ellipse;whiteSpace=wrap;html=1;" parent="1" vertex="1">
          <mxGeometry x="30" y="5500" width="120" height="80" as="geometry" />
        </mxCell>
        <mxCell id="Ds1F4lpZc3j_FqvIpXGs-432" value="Sửa" style="ellipse;whiteSpace=wrap;html=1;" parent="1" vertex="1">
          <mxGeometry x="530" y="5150" width="120" height="80" as="geometry" />
        </mxCell>
        <mxCell id="Ds1F4lpZc3j_FqvIpXGs-433" value="Xóa" style="ellipse;whiteSpace=wrap;html=1;" parent="1" vertex="1">
          <mxGeometry x="530" y="5240" width="120" height="80" as="geometry" />
        </mxCell>
        <mxCell id="Ds1F4lpZc3j_FqvIpXGs-434" style="rounded=0;orthogonalLoop=1;jettySize=auto;html=1;exitX=0;exitY=0.5;exitDx=0;exitDy=0;entryX=1;entryY=0.5;entryDx=0;entryDy=0;dashed=1;" parent="1" source="Ds1F4lpZc3j_FqvIpXGs-432" target="Ds1F4lpZc3j_FqvIpXGs-427" edge="1">
          <mxGeometry relative="1" as="geometry">
            <mxPoint x="650" y="5220" as="sourcePoint" />
            <mxPoint x="480" y="5300" as="targetPoint" />
          </mxGeometry>
        </mxCell>
        <mxCell id="Ds1F4lpZc3j_FqvIpXGs-435" value="&amp;lt;&amp;lt;extend&amp;gt;&amp;gt;" style="edgeLabel;html=1;align=center;verticalAlign=middle;resizable=0;points=[];" parent="Ds1F4lpZc3j_FqvIpXGs-434" vertex="1" connectable="0">
          <mxGeometry x="-0.03" y="1" relative="1" as="geometry">
            <mxPoint as="offset" />
          </mxGeometry>
        </mxCell>
        <mxCell id="Ds1F4lpZc3j_FqvIpXGs-436" style="rounded=0;orthogonalLoop=1;jettySize=auto;html=1;exitX=0;exitY=0.5;exitDx=0;exitDy=0;entryX=1;entryY=0.5;entryDx=0;entryDy=0;dashed=1;" parent="1" source="Ds1F4lpZc3j_FqvIpXGs-433" target="Ds1F4lpZc3j_FqvIpXGs-427" edge="1">
          <mxGeometry relative="1" as="geometry">
            <mxPoint x="640" y="5290" as="sourcePoint" />
            <mxPoint x="470" y="5370" as="targetPoint" />
          </mxGeometry>
        </mxCell>
        <mxCell id="Ds1F4lpZc3j_FqvIpXGs-437" value="&amp;lt;&amp;lt;extend&amp;gt;&amp;gt;" style="edgeLabel;html=1;align=center;verticalAlign=middle;resizable=0;points=[];" parent="Ds1F4lpZc3j_FqvIpXGs-436" vertex="1" connectable="0">
          <mxGeometry x="-0.03" y="1" relative="1" as="geometry">
            <mxPoint as="offset" />
          </mxGeometry>
        </mxCell>
        <mxCell id="Ds1F4lpZc3j_FqvIpXGs-438" value="Thêm" style="ellipse;whiteSpace=wrap;html=1;" parent="1" vertex="1">
          <mxGeometry x="530" y="5050" width="120" height="80" as="geometry" />
        </mxCell>
        <mxCell id="Ds1F4lpZc3j_FqvIpXGs-439" style="rounded=0;orthogonalLoop=1;jettySize=auto;html=1;exitX=0;exitY=0.5;exitDx=0;exitDy=0;dashed=1;entryX=1;entryY=0.5;entryDx=0;entryDy=0;" parent="1" source="Ds1F4lpZc3j_FqvIpXGs-438" target="Ds1F4lpZc3j_FqvIpXGs-427" edge="1">
          <mxGeometry relative="1" as="geometry">
            <mxPoint x="610" y="5080" as="sourcePoint" />
            <mxPoint x="470" y="5280" as="targetPoint" />
          </mxGeometry>
        </mxCell>
        <mxCell id="Ds1F4lpZc3j_FqvIpXGs-440" value="&amp;lt;&amp;lt;extend&amp;gt;&amp;gt;" style="edgeLabel;html=1;align=center;verticalAlign=middle;resizable=0;points=[];" parent="Ds1F4lpZc3j_FqvIpXGs-439" vertex="1" connectable="0">
          <mxGeometry x="-0.03" y="1" relative="1" as="geometry">
            <mxPoint as="offset" />
          </mxGeometry>
        </mxCell>
        <mxCell id="Ds1F4lpZc3j_FqvIpXGs-441" value="Cập nhật các dịch vụ của phòng đó" style="ellipse;whiteSpace=wrap;html=1;" parent="1" vertex="1">
          <mxGeometry x="-340" y="5680" width="120" height="80" as="geometry" />
        </mxCell>
        <mxCell id="Ds1F4lpZc3j_FqvIpXGs-442" value="Cập nhật chỉ số điện nước" style="ellipse;whiteSpace=wrap;html=1;" parent="1" vertex="1">
          <mxGeometry x="-330" y="5810" width="120" height="80" as="geometry" />
        </mxCell>
        <mxCell id="Ds1F4lpZc3j_FqvIpXGs-443" style="rounded=0;orthogonalLoop=1;jettySize=auto;html=1;exitX=1;exitY=0.5;exitDx=0;exitDy=0;dashed=1;entryX=0;entryY=0.5;entryDx=0;entryDy=0;" parent="1" source="Ds1F4lpZc3j_FqvIpXGs-442" target="Ds1F4lpZc3j_FqvIpXGs-431" edge="1">
          <mxGeometry relative="1" as="geometry">
            <mxPoint x="480" y="5860" as="targetPoint" />
            <mxPoint x="620" y="5840" as="sourcePoint" />
          </mxGeometry>
        </mxCell>
        <mxCell id="Ds1F4lpZc3j_FqvIpXGs-444" value="&amp;lt;&amp;lt;extend&amp;gt;&amp;gt;" style="edgeLabel;html=1;align=center;verticalAlign=middle;resizable=0;points=[];" parent="Ds1F4lpZc3j_FqvIpXGs-443" vertex="1" connectable="0">
          <mxGeometry x="-0.2117" y="-1" relative="1" as="geometry">
            <mxPoint as="offset" />
          </mxGeometry>
        </mxCell>
        <mxCell id="Ds1F4lpZc3j_FqvIpXGs-445" style="rounded=0;orthogonalLoop=1;jettySize=auto;html=1;exitX=1;exitY=0.5;exitDx=0;exitDy=0;dashed=1;entryX=0;entryY=0.5;entryDx=0;entryDy=0;" parent="1" source="Ds1F4lpZc3j_FqvIpXGs-441" target="Ds1F4lpZc3j_FqvIpXGs-431" edge="1">
          <mxGeometry relative="1" as="geometry">
            <mxPoint x="490" y="5880" as="targetPoint" />
            <mxPoint x="650" y="5870" as="sourcePoint" />
          </mxGeometry>
        </mxCell>
        <mxCell id="Ds1F4lpZc3j_FqvIpXGs-446" value="&amp;lt;&amp;lt;extend&amp;gt;&amp;gt;" style="edgeLabel;html=1;align=center;verticalAlign=middle;resizable=0;points=[];" parent="Ds1F4lpZc3j_FqvIpXGs-445" vertex="1" connectable="0">
          <mxGeometry x="-0.2117" y="-1" relative="1" as="geometry">
            <mxPoint as="offset" />
          </mxGeometry>
        </mxCell>
        <mxCell id="Ds1F4lpZc3j_FqvIpXGs-447" style="rounded=0;orthogonalLoop=1;jettySize=auto;html=1;exitX=0;exitY=0.5;exitDx=0;exitDy=0;dashed=1;entryX=1;entryY=0.5;entryDx=0;entryDy=0;" parent="1" source="Ds1F4lpZc3j_FqvIpXGs-453" target="Ds1F4lpZc3j_FqvIpXGs-428" edge="1">
          <mxGeometry relative="1" as="geometry">
            <mxPoint x="510" y="5530" as="targetPoint" />
            <mxPoint x="640" y="5480" as="sourcePoint" />
          </mxGeometry>
        </mxCell>
        <mxCell id="Ds1F4lpZc3j_FqvIpXGs-448" value="&amp;lt;&amp;lt;extend&amp;gt;&amp;gt;" style="edgeLabel;html=1;align=center;verticalAlign=middle;resizable=0;points=[];" parent="Ds1F4lpZc3j_FqvIpXGs-447" vertex="1" connectable="0">
          <mxGeometry x="-0.2117" y="-1" relative="1" as="geometry">
            <mxPoint as="offset" />
          </mxGeometry>
        </mxCell>
        <mxCell id="Ds1F4lpZc3j_FqvIpXGs-449" style="rounded=0;orthogonalLoop=1;jettySize=auto;html=1;exitX=0;exitY=0.5;exitDx=0;exitDy=0;dashed=1;entryX=1;entryY=0.5;entryDx=0;entryDy=0;" parent="1" source="Ds1F4lpZc3j_FqvIpXGs-454" target="Ds1F4lpZc3j_FqvIpXGs-428" edge="1">
          <mxGeometry relative="1" as="geometry">
            <mxPoint x="480" y="5500" as="targetPoint" />
            <mxPoint x="640" y="5570" as="sourcePoint" />
          </mxGeometry>
        </mxCell>
        <mxCell id="Ds1F4lpZc3j_FqvIpXGs-450" value="&amp;lt;&amp;lt;extend&amp;gt;&amp;gt;" style="edgeLabel;html=1;align=center;verticalAlign=middle;resizable=0;points=[];" parent="Ds1F4lpZc3j_FqvIpXGs-449" vertex="1" connectable="0">
          <mxGeometry x="-0.2117" y="-1" relative="1" as="geometry">
            <mxPoint as="offset" />
          </mxGeometry>
        </mxCell>
        <mxCell id="Ds1F4lpZc3j_FqvIpXGs-451" value="Quản lý khách thuê" style="ellipse;whiteSpace=wrap;html=1;" parent="1" vertex="1">
          <mxGeometry x="-106" y="5450" width="120" height="80" as="geometry" />
        </mxCell>
        <mxCell id="Ds1F4lpZc3j_FqvIpXGs-452" value="Thêm" style="ellipse;whiteSpace=wrap;html=1;" parent="1" vertex="1">
          <mxGeometry x="704" y="5270" width="120" height="80" as="geometry" />
        </mxCell>
        <mxCell id="Ds1F4lpZc3j_FqvIpXGs-453" value="Sửa" style="ellipse;whiteSpace=wrap;html=1;" parent="1" vertex="1">
          <mxGeometry x="640" y="5380" width="120" height="80" as="geometry" />
        </mxCell>
        <mxCell id="Ds1F4lpZc3j_FqvIpXGs-454" value="Xóa" style="ellipse;whiteSpace=wrap;html=1;" parent="1" vertex="1">
          <mxGeometry x="680" y="5490" width="120" height="80" as="geometry" />
        </mxCell>
        <mxCell id="Ds1F4lpZc3j_FqvIpXGs-455" style="rounded=0;orthogonalLoop=1;jettySize=auto;html=1;exitX=0;exitY=0.5;exitDx=0;exitDy=0;dashed=1;entryX=1;entryY=0.5;entryDx=0;entryDy=0;" parent="1" source="Ds1F4lpZc3j_FqvIpXGs-452" target="Ds1F4lpZc3j_FqvIpXGs-428" edge="1">
          <mxGeometry relative="1" as="geometry">
            <mxPoint x="480" y="5470" as="targetPoint" />
            <mxPoint x="680" y="5470" as="sourcePoint" />
          </mxGeometry>
        </mxCell>
        <mxCell id="Ds1F4lpZc3j_FqvIpXGs-456" value="&amp;lt;&amp;lt;extend&amp;gt;&amp;gt;" style="edgeLabel;html=1;align=center;verticalAlign=middle;resizable=0;points=[];" parent="Ds1F4lpZc3j_FqvIpXGs-455" vertex="1" connectable="0">
          <mxGeometry x="-0.2117" y="-1" relative="1" as="geometry">
            <mxPoint as="offset" />
          </mxGeometry>
        </mxCell>
        <mxCell id="Ds1F4lpZc3j_FqvIpXGs-457" style="rounded=0;orthogonalLoop=1;jettySize=auto;html=1;exitX=0;exitY=0.5;exitDx=0;exitDy=0;dashed=1;" parent="1" source="Ds1F4lpZc3j_FqvIpXGs-462" edge="1">
          <mxGeometry relative="1" as="geometry">
            <mxPoint x="470" y="5710" as="targetPoint" />
            <mxPoint x="670" y="5750" as="sourcePoint" />
          </mxGeometry>
        </mxCell>
        <mxCell id="Ds1F4lpZc3j_FqvIpXGs-458" value="&amp;lt;&amp;lt;extend&amp;gt;&amp;gt;" style="edgeLabel;html=1;align=center;verticalAlign=middle;resizable=0;points=[];" parent="Ds1F4lpZc3j_FqvIpXGs-457" vertex="1" connectable="0">
          <mxGeometry x="-0.2117" y="-1" relative="1" as="geometry">
            <mxPoint as="offset" />
          </mxGeometry>
        </mxCell>
        <mxCell id="Ds1F4lpZc3j_FqvIpXGs-459" style="rounded=0;orthogonalLoop=1;jettySize=auto;html=1;exitX=0;exitY=0.5;exitDx=0;exitDy=0;dashed=1;" parent="1" source="Ds1F4lpZc3j_FqvIpXGs-463" edge="1">
          <mxGeometry relative="1" as="geometry">
            <mxPoint x="460" y="5710" as="targetPoint" />
            <mxPoint x="670" y="5840" as="sourcePoint" />
          </mxGeometry>
        </mxCell>
        <mxCell id="Ds1F4lpZc3j_FqvIpXGs-460" value="&amp;lt;&amp;lt;extend&amp;gt;&amp;gt;" style="edgeLabel;html=1;align=center;verticalAlign=middle;resizable=0;points=[];" parent="Ds1F4lpZc3j_FqvIpXGs-459" vertex="1" connectable="0">
          <mxGeometry x="-0.2117" y="-1" relative="1" as="geometry">
            <mxPoint as="offset" />
          </mxGeometry>
        </mxCell>
        <mxCell id="Ds1F4lpZc3j_FqvIpXGs-461" value="Thêm" style="ellipse;whiteSpace=wrap;html=1;" parent="1" vertex="1">
          <mxGeometry x="690" y="5600" width="120" height="80" as="geometry" />
        </mxCell>
        <mxCell id="Ds1F4lpZc3j_FqvIpXGs-462" value="Sửa" style="ellipse;whiteSpace=wrap;html=1;" parent="1" vertex="1">
          <mxGeometry x="700" y="5690" width="120" height="80" as="geometry" />
        </mxCell>
        <mxCell id="Ds1F4lpZc3j_FqvIpXGs-463" value="Xóa" style="ellipse;whiteSpace=wrap;html=1;" parent="1" vertex="1">
          <mxGeometry x="700" y="5790" width="120" height="80" as="geometry" />
        </mxCell>
        <mxCell id="Ds1F4lpZc3j_FqvIpXGs-464" style="rounded=0;orthogonalLoop=1;jettySize=auto;html=1;exitX=0;exitY=0.5;exitDx=0;exitDy=0;dashed=1;entryX=1;entryY=0.5;entryDx=0;entryDy=0;" parent="1" source="Ds1F4lpZc3j_FqvIpXGs-461" target="Ds1F4lpZc3j_FqvIpXGs-429" edge="1">
          <mxGeometry relative="1" as="geometry">
            <mxPoint x="500" y="5730" as="targetPoint" />
            <mxPoint x="710" y="5740" as="sourcePoint" />
          </mxGeometry>
        </mxCell>
        <mxCell id="Ds1F4lpZc3j_FqvIpXGs-465" value="&amp;lt;&amp;lt;extend&amp;gt;&amp;gt;" style="edgeLabel;html=1;align=center;verticalAlign=middle;resizable=0;points=[];" parent="Ds1F4lpZc3j_FqvIpXGs-464" vertex="1" connectable="0">
          <mxGeometry x="-0.2117" y="-1" relative="1" as="geometry">
            <mxPoint as="offset" />
          </mxGeometry>
        </mxCell>
        <mxCell id="Ds1F4lpZc3j_FqvIpXGs-466" value="Quản lý phòng" style="ellipse;whiteSpace=wrap;html=1;" parent="1" vertex="1">
          <mxGeometry x="160" y="5700" width="120" height="80" as="geometry" />
        </mxCell>
        <mxCell id="Ds1F4lpZc3j_FqvIpXGs-467" style="rounded=0;orthogonalLoop=1;jettySize=auto;html=1;exitX=0;exitY=0.5;exitDx=0;exitDy=0;dashed=1;entryX=0.5;entryY=1;entryDx=0;entryDy=0;" parent="1" source="Ds1F4lpZc3j_FqvIpXGs-472" target="Ds1F4lpZc3j_FqvIpXGs-466" edge="1">
          <mxGeometry relative="1" as="geometry">
            <mxPoint x="510" y="6260" as="targetPoint" />
            <mxPoint x="680" y="6280" as="sourcePoint" />
          </mxGeometry>
        </mxCell>
        <mxCell id="Ds1F4lpZc3j_FqvIpXGs-468" value="&amp;lt;&amp;lt;extend&amp;gt;&amp;gt;" style="edgeLabel;html=1;align=center;verticalAlign=middle;resizable=0;points=[];" parent="Ds1F4lpZc3j_FqvIpXGs-467" vertex="1" connectable="0">
          <mxGeometry x="-0.2117" y="-1" relative="1" as="geometry">
            <mxPoint as="offset" />
          </mxGeometry>
        </mxCell>
        <mxCell id="Ds1F4lpZc3j_FqvIpXGs-469" style="rounded=0;orthogonalLoop=1;jettySize=auto;html=1;exitX=0;exitY=0.5;exitDx=0;exitDy=0;dashed=1;entryX=0.5;entryY=1;entryDx=0;entryDy=0;" parent="1" source="Ds1F4lpZc3j_FqvIpXGs-473" target="Ds1F4lpZc3j_FqvIpXGs-466" edge="1">
          <mxGeometry relative="1" as="geometry">
            <mxPoint x="280" y="5740" as="targetPoint" />
            <mxPoint x="680" y="6370" as="sourcePoint" />
          </mxGeometry>
        </mxCell>
        <mxCell id="Ds1F4lpZc3j_FqvIpXGs-470" value="&amp;lt;&amp;lt;extend&amp;gt;&amp;gt;" style="edgeLabel;html=1;align=center;verticalAlign=middle;resizable=0;points=[];" parent="Ds1F4lpZc3j_FqvIpXGs-469" vertex="1" connectable="0">
          <mxGeometry x="-0.2117" y="-1" relative="1" as="geometry">
            <mxPoint as="offset" />
          </mxGeometry>
        </mxCell>
        <mxCell id="Ds1F4lpZc3j_FqvIpXGs-471" value="Thêm" style="ellipse;whiteSpace=wrap;html=1;" parent="1" vertex="1">
          <mxGeometry x="-80" y="5920" width="120" height="80" as="geometry" />
        </mxCell>
        <mxCell id="Ds1F4lpZc3j_FqvIpXGs-472" value="Sửa" style="ellipse;whiteSpace=wrap;html=1;" parent="1" vertex="1">
          <mxGeometry x="95" y="5960" width="120" height="80" as="geometry" />
        </mxCell>
        <mxCell id="Ds1F4lpZc3j_FqvIpXGs-473" value="Xóa" style="ellipse;whiteSpace=wrap;html=1;" parent="1" vertex="1">
          <mxGeometry x="320" y="5980" width="120" height="80" as="geometry" />
        </mxCell>
        <mxCell id="Ds1F4lpZc3j_FqvIpXGs-474" style="rounded=0;orthogonalLoop=1;jettySize=auto;html=1;exitX=0;exitY=0.5;exitDx=0;exitDy=0;dashed=1;entryX=0.5;entryY=1;entryDx=0;entryDy=0;" parent="1" source="Ds1F4lpZc3j_FqvIpXGs-471" edge="1" target="Ds1F4lpZc3j_FqvIpXGs-466">
          <mxGeometry relative="1" as="geometry">
            <mxPoint x="480" y="6260" as="targetPoint" />
            <mxPoint x="720" y="6270" as="sourcePoint" />
          </mxGeometry>
        </mxCell>
        <mxCell id="Ds1F4lpZc3j_FqvIpXGs-475" value="&amp;lt;&amp;lt;extend&amp;gt;&amp;gt;" style="edgeLabel;html=1;align=center;verticalAlign=middle;resizable=0;points=[];" parent="Ds1F4lpZc3j_FqvIpXGs-474" vertex="1" connectable="0">
          <mxGeometry x="-0.2117" y="-1" relative="1" as="geometry">
            <mxPoint as="offset" />
          </mxGeometry>
        </mxCell>
        <mxCell id="Ds1F4lpZc3j_FqvIpXGs-476" style="rounded=0;orthogonalLoop=1;jettySize=auto;html=1;exitX=0;exitY=0.5;exitDx=0;exitDy=0;dashed=1;entryX=0;entryY=0.5;entryDx=0;entryDy=0;" parent="1" source="Ds1F4lpZc3j_FqvIpXGs-481" target="Ds1F4lpZc3j_FqvIpXGs-451" edge="1">
          <mxGeometry relative="1" as="geometry">
            <mxPoint x="-10" y="5490" as="targetPoint" />
            <mxPoint x="170" y="5520" as="sourcePoint" />
          </mxGeometry>
        </mxCell>
        <mxCell id="Ds1F4lpZc3j_FqvIpXGs-477" value="&amp;lt;&amp;lt;extend&amp;gt;&amp;gt;" style="edgeLabel;html=1;align=center;verticalAlign=middle;resizable=0;points=[];" parent="Ds1F4lpZc3j_FqvIpXGs-476" vertex="1" connectable="0">
          <mxGeometry x="-0.2117" y="-1" relative="1" as="geometry">
            <mxPoint as="offset" />
          </mxGeometry>
        </mxCell>
        <mxCell id="Ds1F4lpZc3j_FqvIpXGs-478" style="rounded=0;orthogonalLoop=1;jettySize=auto;html=1;exitX=1;exitY=0.5;exitDx=0;exitDy=0;dashed=1;entryX=0;entryY=0.5;entryDx=0;entryDy=0;" parent="1" source="Ds1F4lpZc3j_FqvIpXGs-482" target="Ds1F4lpZc3j_FqvIpXGs-451" edge="1">
          <mxGeometry relative="1" as="geometry">
            <mxPoint y="5500" as="targetPoint" />
            <mxPoint x="200" y="5600" as="sourcePoint" />
          </mxGeometry>
        </mxCell>
        <mxCell id="Ds1F4lpZc3j_FqvIpXGs-479" value="&amp;lt;&amp;lt;extend&amp;gt;&amp;gt;" style="edgeLabel;html=1;align=center;verticalAlign=middle;resizable=0;points=[];" parent="Ds1F4lpZc3j_FqvIpXGs-478" vertex="1" connectable="0">
          <mxGeometry x="-0.2117" y="-1" relative="1" as="geometry">
            <mxPoint as="offset" />
          </mxGeometry>
        </mxCell>
        <mxCell id="Ds1F4lpZc3j_FqvIpXGs-480" value="Thêm" style="ellipse;whiteSpace=wrap;html=1;" parent="1" vertex="1">
          <mxGeometry x="-370" y="5460" width="120" height="80" as="geometry" />
        </mxCell>
        <mxCell id="Ds1F4lpZc3j_FqvIpXGs-481" value="Sửa" style="ellipse;whiteSpace=wrap;html=1;" parent="1" vertex="1">
          <mxGeometry x="-270" y="5380" width="120" height="80" as="geometry" />
        </mxCell>
        <mxCell id="Ds1F4lpZc3j_FqvIpXGs-482" value="Xóa" style="ellipse;whiteSpace=wrap;html=1;" parent="1" vertex="1">
          <mxGeometry x="-240" y="5540" width="120" height="80" as="geometry" />
        </mxCell>
        <mxCell id="Ds1F4lpZc3j_FqvIpXGs-483" style="rounded=0;orthogonalLoop=1;jettySize=auto;html=1;exitX=0;exitY=0.5;exitDx=0;exitDy=0;dashed=1;entryX=0;entryY=0.5;entryDx=0;entryDy=0;" parent="1" source="Ds1F4lpZc3j_FqvIpXGs-480" target="Ds1F4lpZc3j_FqvIpXGs-451" edge="1">
          <mxGeometry relative="1" as="geometry">
            <mxPoint y="5500" as="targetPoint" />
            <mxPoint x="210" y="5510" as="sourcePoint" />
          </mxGeometry>
        </mxCell>
        <mxCell id="Ds1F4lpZc3j_FqvIpXGs-484" value="&amp;lt;&amp;lt;extend&amp;gt;&amp;gt;" style="edgeLabel;html=1;align=center;verticalAlign=middle;resizable=0;points=[];" parent="Ds1F4lpZc3j_FqvIpXGs-483" vertex="1" connectable="0">
          <mxGeometry x="-0.2117" y="-1" relative="1" as="geometry">
            <mxPoint as="offset" />
          </mxGeometry>
        </mxCell>
        <mxCell id="Ds1F4lpZc3j_FqvIpXGs-485" value="Quản lý tài khoản" style="ellipse;whiteSpace=wrap;html=1;" parent="1" vertex="1">
          <mxGeometry x="-50" y="5300" width="120" height="80" as="geometry" />
        </mxCell>
        <mxCell id="Ds1F4lpZc3j_FqvIpXGs-486" style="rounded=0;orthogonalLoop=1;jettySize=auto;html=1;exitX=0;exitY=0.5;exitDx=0;exitDy=0;dashed=1;entryX=0;entryY=0.5;entryDx=0;entryDy=0;" parent="1" source="Ds1F4lpZc3j_FqvIpXGs-491" edge="1" target="Ds1F4lpZc3j_FqvIpXGs-485">
          <mxGeometry relative="1" as="geometry">
            <mxPoint x="-140" y="5840" as="targetPoint" />
            <mxPoint x="44" y="5860" as="sourcePoint" />
          </mxGeometry>
        </mxCell>
        <mxCell id="Ds1F4lpZc3j_FqvIpXGs-487" value="&amp;lt;&amp;lt;extend&amp;gt;&amp;gt;" style="edgeLabel;html=1;align=center;verticalAlign=middle;resizable=0;points=[];" parent="Ds1F4lpZc3j_FqvIpXGs-486" vertex="1" connectable="0">
          <mxGeometry x="-0.2117" y="-1" relative="1" as="geometry">
            <mxPoint as="offset" />
          </mxGeometry>
        </mxCell>
        <mxCell id="Ds1F4lpZc3j_FqvIpXGs-488" style="rounded=0;orthogonalLoop=1;jettySize=auto;html=1;dashed=1;entryX=0.025;entryY=0.651;entryDx=0;entryDy=0;entryPerimeter=0;" parent="1" source="Ds1F4lpZc3j_FqvIpXGs-492" edge="1" target="Ds1F4lpZc3j_FqvIpXGs-485">
          <mxGeometry relative="1" as="geometry">
            <mxPoint x="-140" y="5840" as="targetPoint" />
            <mxPoint x="44" y="5950" as="sourcePoint" />
          </mxGeometry>
        </mxCell>
        <mxCell id="Ds1F4lpZc3j_FqvIpXGs-489" value="&amp;lt;&amp;lt;extend&amp;gt;&amp;gt;" style="edgeLabel;html=1;align=center;verticalAlign=middle;resizable=0;points=[];" parent="Ds1F4lpZc3j_FqvIpXGs-488" vertex="1" connectable="0">
          <mxGeometry x="-0.2117" y="-1" relative="1" as="geometry">
            <mxPoint as="offset" />
          </mxGeometry>
        </mxCell>
        <mxCell id="Ds1F4lpZc3j_FqvIpXGs-490" value="Thêm" style="ellipse;whiteSpace=wrap;html=1;" parent="1" vertex="1">
          <mxGeometry x="-320" y="5210" width="120" height="80" as="geometry" />
        </mxCell>
        <mxCell id="Ds1F4lpZc3j_FqvIpXGs-491" value="Sửa" style="ellipse;whiteSpace=wrap;html=1;" parent="1" vertex="1">
          <mxGeometry x="-190" y="5145" width="120" height="80" as="geometry" />
        </mxCell>
        <mxCell id="Ds1F4lpZc3j_FqvIpXGs-492" value="Xóa" style="ellipse;whiteSpace=wrap;html=1;" parent="1" vertex="1">
          <mxGeometry x="-360" y="5300" width="120" height="80" as="geometry" />
        </mxCell>
        <mxCell id="Ds1F4lpZc3j_FqvIpXGs-493" style="rounded=0;orthogonalLoop=1;jettySize=auto;html=1;exitX=1;exitY=0.5;exitDx=0;exitDy=0;dashed=1;entryX=0;entryY=0.5;entryDx=0;entryDy=0;" parent="1" source="Ds1F4lpZc3j_FqvIpXGs-490" target="Ds1F4lpZc3j_FqvIpXGs-485" edge="1">
          <mxGeometry relative="1" as="geometry">
            <mxPoint x="514" y="6910" as="targetPoint" />
            <mxPoint x="724" y="6920" as="sourcePoint" />
          </mxGeometry>
        </mxCell>
        <mxCell id="Ds1F4lpZc3j_FqvIpXGs-494" value="&amp;lt;&amp;lt;extend&amp;gt;&amp;gt;" style="edgeLabel;html=1;align=center;verticalAlign=middle;resizable=0;points=[];" parent="Ds1F4lpZc3j_FqvIpXGs-493" vertex="1" connectable="0">
          <mxGeometry x="-0.2117" y="-1" relative="1" as="geometry">
            <mxPoint as="offset" />
          </mxGeometry>
        </mxCell>
        <mxCell id="Ds1F4lpZc3j_FqvIpXGs-495" value="Quản lý vai trò" style="ellipse;whiteSpace=wrap;html=1;" parent="1" vertex="1">
          <mxGeometry x="-124" y="5045" width="120" height="80" as="geometry" />
        </mxCell>
        <mxCell id="Ds1F4lpZc3j_FqvIpXGs-496" style="rounded=0;orthogonalLoop=1;jettySize=auto;html=1;exitX=0;exitY=0.5;exitDx=0;exitDy=0;dashed=1;" parent="1" source="Ds1F4lpZc3j_FqvIpXGs-501" edge="1">
          <mxGeometry relative="1" as="geometry">
            <mxPoint x="-4" y="5085" as="targetPoint" />
            <mxPoint x="180" y="5105" as="sourcePoint" />
          </mxGeometry>
        </mxCell>
        <mxCell id="Ds1F4lpZc3j_FqvIpXGs-497" value="&amp;lt;&amp;lt;extend&amp;gt;&amp;gt;" style="edgeLabel;html=1;align=center;verticalAlign=middle;resizable=0;points=[];" parent="Ds1F4lpZc3j_FqvIpXGs-496" vertex="1" connectable="0">
          <mxGeometry x="-0.2117" y="-1" relative="1" as="geometry">
            <mxPoint as="offset" />
          </mxGeometry>
        </mxCell>
        <mxCell id="Ds1F4lpZc3j_FqvIpXGs-498" style="rounded=0;orthogonalLoop=1;jettySize=auto;html=1;exitX=0;exitY=0.5;exitDx=0;exitDy=0;dashed=1;" parent="1" source="Ds1F4lpZc3j_FqvIpXGs-502" edge="1">
          <mxGeometry relative="1" as="geometry">
            <mxPoint x="-4" y="5085" as="targetPoint" />
            <mxPoint x="180" y="5195" as="sourcePoint" />
          </mxGeometry>
        </mxCell>
        <mxCell id="Ds1F4lpZc3j_FqvIpXGs-499" value="&amp;lt;&amp;lt;extend&amp;gt;&amp;gt;" style="edgeLabel;html=1;align=center;verticalAlign=middle;resizable=0;points=[];" parent="Ds1F4lpZc3j_FqvIpXGs-498" vertex="1" connectable="0">
          <mxGeometry x="-0.2117" y="-1" relative="1" as="geometry">
            <mxPoint as="offset" />
          </mxGeometry>
        </mxCell>
        <mxCell id="Ds1F4lpZc3j_FqvIpXGs-500" value="Thêm" style="ellipse;whiteSpace=wrap;html=1;" parent="1" vertex="1">
          <mxGeometry x="200" y="4955" width="120" height="80" as="geometry" />
        </mxCell>
        <mxCell id="Ds1F4lpZc3j_FqvIpXGs-501" value="Sửa" style="ellipse;whiteSpace=wrap;html=1;" parent="1" vertex="1">
          <mxGeometry x="210" y="5045" width="120" height="80" as="geometry" />
        </mxCell>
        <mxCell id="Ds1F4lpZc3j_FqvIpXGs-502" value="Xóa" style="ellipse;whiteSpace=wrap;html=1;" parent="1" vertex="1">
          <mxGeometry x="210" y="5145" width="120" height="80" as="geometry" />
        </mxCell>
        <mxCell id="Ds1F4lpZc3j_FqvIpXGs-503" style="rounded=0;orthogonalLoop=1;jettySize=auto;html=1;exitX=0;exitY=0.5;exitDx=0;exitDy=0;dashed=1;entryX=1;entryY=0.5;entryDx=0;entryDy=0;entryPerimeter=0;" parent="1" source="Ds1F4lpZc3j_FqvIpXGs-500" target="Ds1F4lpZc3j_FqvIpXGs-495" edge="1">
          <mxGeometry relative="1" as="geometry">
            <mxPoint x="10" y="5085" as="targetPoint" />
            <mxPoint x="220" y="5095" as="sourcePoint" />
          </mxGeometry>
        </mxCell>
        <mxCell id="Ds1F4lpZc3j_FqvIpXGs-504" value="&amp;lt;&amp;lt;extend&amp;gt;&amp;gt;" style="edgeLabel;html=1;align=center;verticalAlign=middle;resizable=0;points=[];" parent="Ds1F4lpZc3j_FqvIpXGs-503" vertex="1" connectable="0">
          <mxGeometry x="-0.2117" y="-1" relative="1" as="geometry">
            <mxPoint as="offset" />
          </mxGeometry>
        </mxCell>
        <mxCell id="Ds1F4lpZc3j_FqvIpXGs-505" value="Tìm kiếm" style="ellipse;whiteSpace=wrap;html=1;" parent="1" vertex="1">
          <mxGeometry x="354" y="5430" width="120" height="80" as="geometry" />
        </mxCell>
      </root>
    </mxGraphModel>
  </diagram>
</mxfile>
